<?xml version="1.0" encoding="utf-8"?>
<!-- Generator: Adobe Illustrator 25.2.3, SVG Export Plug-In . SVG Version: 6.00 Build 0)  -->
<svg version="1.1" id="Layer_1" xmlns="http://www.w3.org/2000/svg" xmlns:xlink="http://www.w3.org/1999/xlink" x="0px" y="0px"
	 viewBox="0 0 200 200" style="enable-background:new 0 0 200 200;" xml:space="preserve">
<style type="text/css">
	.st0{fill:#58595B;}
	.st1{fill:#FFFFFF;}
	.st2{fill:#F4F4F4;}
	.st3{fill:#00FFB4;}
	.st4{fill:#00B1FF;}
	.st5{fill:#FCFF88;}
	.st6{fill:#8485FF;}
	.st7{opacity:0.18;fill:#55D3FF;}
</style>
<g>
	<path d="M56.4,157.6l4.8,21.1l-4.5,0.1l-0.7-3l-4.2,0.1l-0.5,3.5l-4.8,0l4.1-21.5L56.4,157.6z M52.3,172.8l3,0l-1.8-7.2L52.3,172.8
		z"/>
	<path d="M73.9,176.5c-0.8,1.8-2.8,2.8-5.9,2.9v0c-3.2-0.1-5.2-1.1-5.9-2.9c-0.8-1.8-1.1-4.4-1.2-7.9h0c0-3.5,0.4-6.1,1.1-7.9
		c0.8-1.8,2.7-2.8,5.9-2.9v0c3.1,0.1,5.1,1,5.9,2.9c0.6,1.3,0.9,3,1.1,5.1l-4.7,0.4c-0.1-1.2-0.2-2.2-0.3-3c-0.2-1.3-0.8-1.9-1.8-2
		c-1,0.1-1.6,0.8-1.8,2c-0.2,1.3-0.4,3.1-0.4,5.5s0.1,4.2,0.4,5.5c0.2,1.3,0.8,1.9,1.8,2v0c1-0.1,1.6-0.7,1.8-2
		c0.2-0.8,0.3-1.8,0.3-3.1l4.8,0.1C74.9,173.4,74.5,175.2,73.9,176.5z"/>
	<path d="M84.8,157.6l4.8,21.1l-4.5,0.1l-0.7-3l-4.2,0.1l-0.5,3.5l-4.8,0l4.1-21.5L84.8,157.6z M80.6,172.8l3,0l-1.8-7.2L80.6,172.8
		z"/>
	<path d="M89.9,179l0.4-21.2c1-0.2,2-0.2,3.2-0.2c0.8,0,1.7,0,2.7,0.1v0c3.2,0.1,5.1,1,5.9,2.8c0.8,1.8,1.2,4.4,1.3,7.8h0v1.1
		c0,3-0.3,5.3-1,6.9c-0.7,1.8-2.7,2.8-5.8,2.9v0c-0.7,0.1-1.4,0.1-2.1,0.1C93,179.4,91.5,179.3,89.9,179z M94.7,176.3
		c0.6,0.1,1.2,0,1.7-0.2v0c1-0.1,1.6-0.8,1.8-2s0.3-3.1,0.3-5.6c-0.1-2.2-0.2-4-0.5-5.4c-0.3-1.2-0.9-1.9-1.8-2l-1.2,0L94.7,176.3z"
		/>
	<path d="M109.7,168.8l-0.1,6.9l6.1,0l-0.2,3.5l-10.8-0.1l0.5-21.4l10.4,0l0.2,3.3l-5.9,0l-0.1,4.2l4.8,0l-0.2,3.4L109.7,168.8z"/>
	<path d="M121.7,167.9l-0.5,11.4h-4.8l1.2-21.7l4.5,0v0h1.3l2.8,10.8l2.6-10.8l4.3,0l1.3,0l1.3,21.6l-4.5,0.2l-0.7-11.1l-2.1,8
		l-4.1,0.3L121.7,167.9z"/>
	<path d="M145,157.5l4.7,0.3l-4.5,12.3l0.1,9.1l-4.9,0l0-7.9l-5.6-13.6l5.1,0l2.9,7.7L145,157.5z"/>
</g>
<g>
	<path class="st0" d="M50.8,188.5c0,0.4-0.1,0.7-0.2,1c-0.1,0.3-0.3,0.5-0.5,0.6c-0.2,0.2-0.4,0.3-0.6,0.3c-0.2,0.1-0.4,0.1-0.6,0.1
		H47v-7.3h1.7c0.2,0,0.4,0,0.6,0.1c0.2,0.1,0.4,0.1,0.6,0.3c0.2,0.1,0.3,0.3,0.5,0.5s0.2,0.5,0.2,0.9c0,0.2,0,0.5-0.1,0.6
		c-0.1,0.2-0.1,0.3-0.2,0.5s-0.2,0.2-0.3,0.3c-0.1,0.1-0.3,0.2-0.4,0.2v0c0.1,0,0.3,0.1,0.4,0.2s0.3,0.2,0.4,0.3
		c0.1,0.1,0.2,0.3,0.3,0.6C50.7,187.9,50.8,188.2,50.8,188.5z M49.9,185.1c0-0.2,0-0.4-0.1-0.6c-0.1-0.2-0.2-0.3-0.3-0.4
		c-0.1-0.1-0.3-0.2-0.4-0.2c-0.2,0-0.3-0.1-0.5-0.1h-0.9v2.6h0.9c0.2,0,0.3,0,0.5-0.1c0.1,0,0.3-0.1,0.4-0.2
		c0.1-0.1,0.2-0.2,0.3-0.4C49.8,185.5,49.9,185.3,49.9,185.1z M50.1,188.4c0-0.3,0-0.5-0.1-0.7c-0.1-0.2-0.2-0.3-0.3-0.5
		c-0.1-0.1-0.3-0.2-0.4-0.3c-0.2-0.1-0.3-0.1-0.5-0.1h-1v2.9h1c0.2,0,0.4,0,0.5-0.1c0.2-0.1,0.3-0.1,0.4-0.3
		c0.1-0.1,0.2-0.3,0.3-0.4C50,188.9,50.1,188.7,50.1,188.4z"/>
	<path class="st0" d="M55,187.5v3h-0.7v-3l-1.8-4.3h0.8l1.4,3.6l1.4-3.6h0.8L55,187.5z"/>
	<path class="st0" d="M65.3,188.6c0,0.3,0,0.6-0.1,0.9s-0.2,0.5-0.4,0.6c-0.2,0.2-0.4,0.3-0.6,0.4c-0.2,0.1-0.5,0.1-0.7,0.1
		c-0.4,0-0.7-0.1-1-0.2c-0.3-0.2-0.6-0.4-0.8-0.6l0.4-0.5c0.2,0.2,0.4,0.4,0.6,0.5c0.2,0.1,0.5,0.2,0.7,0.2c0.3,0,0.6-0.1,0.8-0.4
		c0.2-0.2,0.3-0.6,0.3-1c0-0.2,0-0.4-0.1-0.5s-0.2-0.3-0.3-0.4c-0.1-0.1-0.3-0.2-0.4-0.3s-0.3-0.2-0.5-0.3c-0.2-0.1-0.4-0.2-0.6-0.3
		c-0.2-0.1-0.3-0.3-0.5-0.4c-0.1-0.2-0.2-0.3-0.3-0.6c-0.1-0.2-0.1-0.5-0.1-0.8c0-0.3,0.1-0.6,0.2-0.9c0.1-0.3,0.2-0.5,0.4-0.6
		c0.2-0.2,0.4-0.3,0.6-0.4c0.2-0.1,0.5-0.1,0.7-0.1c0.3,0,0.6,0.1,0.9,0.2c0.3,0.1,0.5,0.3,0.7,0.5l-0.4,0.5
		c-0.1-0.2-0.3-0.3-0.5-0.4c-0.2-0.1-0.4-0.1-0.6-0.1c-0.1,0-0.3,0-0.4,0.1s-0.3,0.1-0.4,0.2s-0.2,0.3-0.3,0.4s-0.1,0.4-0.1,0.6
		c0,0.2,0,0.4,0.1,0.5c0.1,0.2,0.1,0.3,0.3,0.4s0.2,0.2,0.4,0.3c0.1,0.1,0.3,0.2,0.4,0.2c0.2,0.1,0.4,0.2,0.6,0.3
		c0.2,0.1,0.4,0.3,0.5,0.4c0.2,0.2,0.3,0.4,0.4,0.6C65.2,188.1,65.3,188.3,65.3,188.6z"/>
	<path class="st0" d="M69.2,183.8v6.7h-0.7v-6.7h-1.4v-0.6h3.5v0.6H69.2z"/>
	<path class="st0" d="M74.1,183.8v6.7h-0.7v-6.7H72v-0.6h3.5v0.6H74.1z"/>
	<path class="st0" d="M77.7,190.5v-7.3h3v0.6h-2.2v2.6h2.1v0.6h-2.1v2.8h2.4v0.7H77.7z"/>
	<path class="st0" d="M87.4,183.8v2.6h2.1v0.6h-2.1v3.4h-0.7v-7.3h2.9v0.7H87.4z"/>
	<path class="st0" d="M96.7,186.8c0,0.6-0.1,1.1-0.2,1.6c-0.1,0.5-0.3,0.9-0.5,1.2c-0.2,0.3-0.5,0.6-0.8,0.8s-0.6,0.3-1,0.3
		c-0.4,0-0.7-0.1-1-0.3s-0.6-0.4-0.8-0.8c-0.2-0.3-0.4-0.7-0.5-1.2c-0.1-0.5-0.2-1-0.2-1.6c0-0.6,0.1-1.1,0.2-1.6s0.3-0.9,0.5-1.2
		c0.2-0.3,0.5-0.6,0.8-0.8s0.6-0.3,1-0.3c0.4,0,0.7,0.1,1,0.3s0.5,0.4,0.8,0.8c0.2,0.3,0.4,0.7,0.5,1.2
		C96.6,185.7,96.7,186.2,96.7,186.8z M95.9,186.8c0-0.4,0-0.9-0.1-1.2c-0.1-0.4-0.2-0.7-0.3-1s-0.3-0.5-0.5-0.7
		c-0.2-0.2-0.4-0.2-0.7-0.2c-0.3,0-0.5,0.1-0.7,0.2c-0.2,0.2-0.4,0.4-0.5,0.7c-0.1,0.3-0.2,0.6-0.3,1s-0.1,0.8-0.1,1.2
		c0,0.4,0,0.9,0.1,1.2c0.1,0.4,0.2,0.7,0.3,1c0.1,0.3,0.3,0.5,0.5,0.7c0.2,0.2,0.5,0.2,0.7,0.2c0.3,0,0.5-0.1,0.7-0.2
		c0.2-0.2,0.4-0.4,0.5-0.7c0.1-0.3,0.2-0.6,0.3-1C95.9,187.7,95.9,187.2,95.9,186.8z"/>
	<path class="st0" d="M103.4,189c-0.1,0.3-0.2,0.6-0.4,0.9c-0.2,0.2-0.4,0.4-0.6,0.6c-0.3,0.1-0.6,0.2-1,0.2s-0.7-0.1-1-0.2
		s-0.5-0.3-0.6-0.6c-0.2-0.2-0.3-0.5-0.3-0.9c-0.1-0.3-0.1-0.7-0.1-1.1v-4.8h0.7v4.7c0,0.3,0,0.5,0.1,0.8c0,0.3,0.1,0.5,0.2,0.7
		c0.1,0.2,0.2,0.4,0.4,0.5s0.4,0.2,0.7,0.2c0.3,0,0.5-0.1,0.7-0.2s0.3-0.3,0.4-0.5c0.1-0.2,0.2-0.4,0.2-0.7c0-0.3,0.1-0.5,0.1-0.8
		v-4.7h0.7v4.8C103.5,188.3,103.5,188.7,103.4,189z"/>
	<path class="st0" d="M109.8,190.5l-2.5-6.1h0v6.1h-0.7v-7.3h0.9l2.5,6.1h0v-6.1h0.7v7.3H109.8z"/>
	<path class="st0" d="M117.9,186.8c0,0.6-0.1,1.1-0.2,1.6c-0.1,0.5-0.3,0.8-0.5,1.1c-0.2,0.3-0.5,0.5-0.8,0.7
		c-0.3,0.2-0.7,0.2-1.1,0.2h-1.6v-7.3h1.6c0.4,0,0.8,0.1,1.1,0.2c0.3,0.2,0.6,0.4,0.8,0.7s0.4,0.7,0.5,1.2S117.9,186.2,117.9,186.8z
		 M117.2,186.8c0-0.5,0-1-0.1-1.4c-0.1-0.4-0.2-0.7-0.4-1c-0.2-0.2-0.4-0.4-0.6-0.6c-0.2-0.1-0.5-0.2-0.8-0.2h-0.8v6.1h0.8
		c0.3,0,0.5-0.1,0.8-0.2c0.2-0.1,0.4-0.3,0.6-0.6c0.2-0.2,0.3-0.6,0.4-0.9C117.1,187.8,117.2,187.3,117.2,186.8z"/>
	<path class="st0" d="M123.5,190.5l-0.4-1.8h-2.3l-0.5,1.8h-0.7l1.9-7.3h1l1.8,7.3H123.5z M122,183.8L122,183.8l-1.1,4.3h2
		L122,183.8z"/>
	<path class="st0" d="M127.7,183.8v6.7h-0.7v-6.7h-1.4v-0.6h3.5v0.6H127.7z"/>
	<path class="st0" d="M131.3,190.5v-7.3h0.7v7.3H131.3z"/>
	<path class="st0" d="M139.6,186.8c0,0.6-0.1,1.1-0.2,1.6c-0.1,0.5-0.3,0.9-0.5,1.2c-0.2,0.3-0.5,0.6-0.8,0.8s-0.6,0.3-1,0.3
		s-0.7-0.1-1-0.3c-0.3-0.2-0.6-0.4-0.8-0.8c-0.2-0.3-0.4-0.7-0.5-1.2c-0.1-0.5-0.2-1-0.2-1.6c0-0.6,0.1-1.1,0.2-1.6s0.3-0.9,0.5-1.2
		c0.2-0.3,0.5-0.6,0.8-0.8c0.3-0.2,0.6-0.3,1-0.3c0.4,0,0.7,0.1,1,0.3s0.5,0.4,0.8,0.8c0.2,0.3,0.4,0.7,0.5,1.2
		S139.6,186.2,139.6,186.8z M138.8,186.8c0-0.4,0-0.9-0.1-1.2c-0.1-0.4-0.2-0.7-0.3-1s-0.3-0.5-0.5-0.7c-0.2-0.2-0.4-0.2-0.7-0.2
		c-0.3,0-0.5,0.1-0.7,0.2c-0.2,0.2-0.4,0.4-0.5,0.7c-0.1,0.3-0.2,0.6-0.3,1c-0.1,0.4-0.1,0.8-0.1,1.2c0,0.4,0,0.9,0.1,1.2
		c0.1,0.4,0.2,0.7,0.3,1c0.1,0.3,0.3,0.5,0.5,0.7c0.2,0.2,0.5,0.2,0.7,0.2c0.3,0,0.5-0.1,0.7-0.2c0.2-0.2,0.4-0.4,0.5-0.7
		c0.1-0.3,0.2-0.6,0.3-1C138.8,187.7,138.8,187.2,138.8,186.8z"/>
	<path class="st0" d="M145.6,190.5l-2.5-6.1h0v6.1h-0.7v-7.3h0.9l2.5,6.1h0v-6.1h0.7v7.3H145.6z"/>
</g>
<g>
	<path d="M147.9,174.7v3.9h-0.4v-3.9h-0.8v-0.4h2v0.4H147.9z"/>
	<path d="M152.8,178.5v-3.7h0l-1,3.7h-0.4l-1-3.7h0v3.7H150v-4.2h0.6l1,3.6h0l1-3.6h0.6v4.2H152.8z"/>
</g>
<g>
	<g>
		<path class="st1" d="M70.8,36.5c0.1,1.5,0.2,2.8,0.3,4.1c0.2,1.7,0.6,3.4,1.2,5c0.1,0.2,0,0.4,0,0.5c-1.6,2.2-3,4.7-4.2,7.1
			c-1,1.9-1.9,3.9-2.9,5.9c-0.7,1.6-1.5,3.2-2.1,4.8c-1,2.4-1.9,4.9-2.4,7.5c-0.2,1-0.4,2.1-0.6,3.2c-0.1,0.8-0.2,1.6-0.2,2.5
			c0,1.1-0.1,2.3,0.1,3.4c0.2,1,0.6,1.9,1.1,2.8c1.1,2.3,2.2,4.5,3.4,6.8c0.1,0.1,0.1,0.4,0.1,0.5c-0.6,1.9-1.3,3.7-1.9,5.6
			c-0.9,3-1.8,6-2.6,9.1c-1.1,4.3-2.2,8.6-2.8,13c-0.2,1.4-0.3,2.9-0.1,4.3c0.2,1.2,0.9,2.1,2.1,2.6c1.3,0.5,3.1-0.4,3.9-1.5
			c1.2-1.7,2.3-3.5,3.3-5.3c1.4-2.4,2.8-4.8,4.2-7.2c1.5-2.6,3-5.2,4.4-7.8c0.4-0.6,0.7-1.3,1.1-1.8c2.4,1.3,4.7,2.5,7.1,3.7
			c1.4,0.7,2.9,0.5,4.2-0.3c1.3-0.8,2.4-1.9,3.2-3.2c1.3-1.9,2.5-3.9,3.7-5.9c0.4,0.4,0.7,0.8,1.1,1.2c1.6,1.5,3.1,3,4.8,4.5
			c1.6,1.4,3.2,2.7,5,3.9c3.1,2.2,6.3,4.1,9.7,5.7c3,1.4,6,2.6,9.2,3.3c1.9,0.4,3.7,0.4,5.6,0c2.3-0.5,4.5-1.4,6.6-2.6
			c2.5-1.4,4.7-3.1,6.7-5.1c1.6-1.6,3-3.3,4.5-5c1.5-1.8,2.8-3.8,3.9-5.9c1.3-2.5,2.2-5.2,2.5-8c0.2-1.7,0.3-3.4,0.1-5.1
			c-0.2-1.5-0.4-3.1-0.7-4.6c-0.7-3.2-1.9-6.1-3.6-8.9c-1.3-2.1-2.7-4.1-4.1-6.1c-1.2-1.7-2.4-3.2-3.7-4.8c-1.1-1.4-2.3-2.8-3.4-4.1
			c-1.2-1.4-2.4-2.8-3.6-4.2c-0.6-0.7-1.3-1.5-1.9-2.2c-0.5-0.5-0.9-1-1.4-1.5c0.8-1.4,1.7-2.9,2.6-4.3c1.6-2.7,3.2-5.4,4.8-8.2
			c1.3-2.3,2.7-4.7,4-7.1c1.5-2.8,3.1-5.6,4.6-8.5c1.4-2.7,2.7-5.4,3.7-8.3c0.2-0.7,0.4-1.5,0.6-2.2c0-0.1-0.1-0.1-0.1-0.2
			c-0.4,0.1-0.9,0.2-1.3,0.4c-1.8,1.1-3.7,2.2-5.4,3.5c-3.2,2.3-6.4,4.7-9.5,7c-2.2,1.7-4.3,3.4-6.5,5.1c-1.3,1-2.7,2.1-4,3.1
			c-1.1,0.8-2.1,1.7-3.2,2.6c-1.1,0.9-2.2,1.9-3.4,2.8c-0.1-0.2-0.3-0.3-0.4-0.5c-1.8-2.5-3.8-4.8-6-6.8c-1.7-1.6-3.5-3-5.5-4.2
			c-2-1.2-4-2.3-6.2-3.1c-2.3-0.8-4.7-1.4-7.1-2.1c-0.6-0.2-1.3-0.2-2-0.3c0,0.1,0,0.1-0.1,0.2c1.1,2.3,2.5,4.5,3,7.1
			c-0.2,0-0.2,0-0.3,0c-1.2-0.4-2.4-0.4-3.6-0.2c-1.4,0.2-2.7,0.6-3.9,1.4c-1.2,0.7-2.4,1.6-3.1,2.8c-0.7,1.2-1.3,2.5-1.9,3.7
			c-0.4,0.7-0.7,1.4-1,2.2c3.1-0.7,6.1-1.4,9.2-2.1c0,0.1-0.1,0.1-0.1,0.2c-2.4,1.5-4.8,2.9-7.1,4.4c-1.3,0.9-2.6,1.8-3.6,3.1
			c-0.1,0.1-0.3,0.2-0.5,0.1c-1.2-0.3-2.3-0.6-3.5-0.8C73.4,36.6,72.2,36.6,70.8,36.5z"/>
		<path d="M70.8,36.5c1.4,0.1,2.6,0.2,3.8,0.4c1.2,0.2,2.4,0.6,3.5,0.8c0.1,0,0.4,0,0.5-0.1c1-1.3,2.2-2.2,3.6-3.1
			c2.3-1.5,4.7-2.9,7.1-4.4c0,0,0.1-0.1,0.1-0.2c-3.1,0.7-6.1,1.4-9.2,2.1c0.3-0.7,0.6-1.5,1-2.2c0.6-1.3,1.2-2.5,1.9-3.7
			c0.7-1.3,1.9-2.1,3.1-2.8c1.2-0.7,2.5-1.2,3.9-1.4c1.2-0.1,2.4-0.1,3.6,0.2c0.1,0,0.1,0,0.3,0c-0.5-2.6-1.9-4.8-3-7.1
			c0-0.1,0-0.1,0.1-0.2c0.7,0.1,1.4,0.1,2,0.3c2.4,0.7,4.7,1.3,7.1,2.1c2.2,0.7,4.3,1.8,6.2,3.1c1.9,1.2,3.7,2.6,5.5,4.2
			c2.3,2.1,4.3,4.3,6,6.8c0.1,0.2,0.3,0.3,0.4,0.5c1.1-0.9,2.2-1.9,3.4-2.8c1-0.9,2.1-1.7,3.2-2.6c1.3-1.1,2.7-2.1,4-3.1
			c2.2-1.7,4.3-3.4,6.5-5.1c3.1-2.4,6.3-4.7,9.5-7c1.7-1.2,3.6-2.4,5.4-3.5c0.4-0.2,0.9-0.3,1.3-0.4c0,0.1,0.1,0.1,0.1,0.2
			c-0.2,0.7-0.4,1.5-0.6,2.2c-1,2.9-2.3,5.6-3.7,8.3c-1.5,2.8-3,5.6-4.6,8.5c-1.3,2.4-2.6,4.7-4,7.1c-1.6,2.7-3.2,5.4-4.8,8.2
			c-0.9,1.4-1.7,2.9-2.6,4.3c0.5,0.5,1,1,1.4,1.5c0.6,0.7,1.3,1.5,1.9,2.2c1.2,1.4,2.4,2.8,3.6,4.2c1.1,1.4,2.3,2.7,3.4,4.1
			c1.3,1.6,2.5,3.2,3.7,4.8c1.4,2,2.8,4,4.1,6.1c1.7,2.7,2.9,5.7,3.6,8.9c0.3,1.5,0.5,3.1,0.7,4.6c0.2,1.7,0.1,3.4-0.1,5.1
			c-0.3,2.8-1.2,5.5-2.5,8c-1.1,2.1-2.3,4.1-3.9,5.9c-1.4,1.7-2.9,3.4-4.5,5c-2,2-4.3,3.7-6.7,5.1c-2.1,1.2-4.3,2.1-6.6,2.6
			c-1.9,0.4-3.7,0.4-5.6,0c-3.2-0.7-6.2-1.9-9.2-3.3c-3.4-1.6-6.6-3.5-9.7-5.7c-1.7-1.2-3.4-2.5-5-3.9c-1.7-1.4-3.2-3-4.8-4.5
			c-0.4-0.4-0.7-0.8-1.1-1.2c-1.3,2-2.5,4-3.7,5.9c-0.8,1.3-1.9,2.4-3.2,3.2c-1.4,0.8-2.8,1-4.2,0.3c-2.4-1.2-4.7-2.5-7.1-3.7
			c-0.3,0.6-0.7,1.2-1.1,1.8c-1.5,2.6-2.9,5.2-4.4,7.8c-1.4,2.4-2.8,4.8-4.2,7.2c-1.1,1.8-2.1,3.6-3.3,5.3c-0.7,1-2.6,2-3.9,1.5
			c-1.2-0.4-1.9-1.4-2.1-2.6c-0.3-1.4-0.1-2.8,0.1-4.3c0.6-4.4,1.7-8.7,2.8-13c0.8-3.1,1.7-6.1,2.6-9.1c0.6-1.9,1.3-3.7,1.9-5.6
			c0-0.1,0-0.3-0.1-0.5c-1.1-2.3-2.3-4.5-3.4-6.8c-0.4-0.9-0.9-1.8-1.1-2.8c-0.2-1.1-0.1-2.3-0.1-3.4c0-0.8,0.1-1.6,0.2-2.5
			c0.2-1.1,0.4-2.1,0.6-3.2c0.5-2.6,1.4-5.1,2.4-7.5c0.7-1.6,1.4-3.2,2.1-4.8c0.9-2,1.9-3.9,2.9-5.9c1.3-2.4,2.6-4.9,4.2-7.1
			c0.1-0.1,0.1-0.4,0-0.5c-0.6-1.6-1.1-3.3-1.2-5C71,39.3,70.9,38,70.8,36.5z M124.4,29.8c-1.3,1.2-2.6,2.3-3.9,3.5
			c-1.3,1.2-2.6,2.5-3.9,3.8c-0.2,0.2-0.3,0.4-0.1,0.7c0.3,0.6,0.5,1.2,0.9,1.8c0.8,1.4,1.8,2.7,3,3.7c2.2,1.6,4.6,2.3,7.3,2.3
			c0.2,0,0.4-0.2,0.5-0.3c1.2-1.9,2.5-3.7,3.7-5.6c0.4-0.6,0.8-1.3,1.3-2C128.3,37.2,125.8,34.2,124.4,29.8z M125.6,28.7
			c0.7,1.5,1.5,2.8,2.7,3.8c1.8,1.6,3.9,2.2,6.2,2.5c0.4,0,0.6-0.1,0.8-0.4c1.3-2.1,2.7-4.2,4.1-6.3c0.4-0.7,0.9-1.4,1.4-2.2
			c-3.6,0-5.3-2-6.2-5.1C131.5,23.6,128.5,26.2,125.6,28.7z M126.2,48.6c-6.1-0.5-9.6-4-11.6-9.6c-0.2,0.1-0.3,0.2-0.4,0.4
			c-0.5,0.5-0.9,1-1.4,1.5c-1,1-1.4,2.2-1.5,3.5c-0.1,1.3,0.3,2.6,0.9,3.7c0.9,1.8,2.2,3.3,4,4.3c1.7,0.9,3.5,1.1,5.4,0.4
			C123.6,52,125,50.4,126.2,48.6z M135.3,20.4c0.5,0.7,0.9,1.5,1.4,2.1c0.9,1.2,2.2,1.8,3.7,1.9c0.5,0,1,0.2,1.3-0.3
			c0.8-1.2,1.5-2.4,2.2-3.6c1.1-1.9,2.3-3.8,3.4-5.7c0.9-1.6,1.8-3.3,2.7-5c0.2-0.3,0.3-0.7,0.5-1.1
			C149.2,9.2,136.7,18.8,135.3,20.4z M65.6,93.1c-2,6.5-3.9,12.9-5.8,19.3c1.6-4,3-8,4.4-12.1c0.6-1.8,1.3-3.5,1.9-5.3
			c0.2-0.6,0.4-1.2-0.3-1.7C65.7,93.3,65.7,93.2,65.6,93.1z"/>
		<path class="st2" d="M130.2,73.1c-1.1,0.4-2.3,0.7-3.4,1.2c-1.5,0.6-3,1.3-4.4,2c-1.9,1-3.7,2.1-5.3,3.5c-0.9,0.8-1.7,1.5-2.5,2.3
			c-1.4,1.5-2.6,3.2-3.6,4.9c-1.2,2.1-2,4.2-2.7,6.5c-0.5,1.4-0.7,2.8-0.8,4.3c0,1-0.1,2-0.1,2.9c0,0.3,0.1,0.7,0.1,1.2
			c-11-6.7-19.1-16-24.8-27.5c0,0-0.1,0-0.1,0c0.6,1.7,1.1,3.3,1.7,5c1.4,3.4,3.1,6.7,5.2,9.7c0.7,0.8,0.1,3.9-0.3,5.8
			c-0.2,1-0.3,1.7-1.1,3.2c-0.8,1.3-2.3,2-3.6,2.3c-1.7,0.4-3.3,0-4.9-0.7c-1.8-0.9-3.5-2-5-3.3c-2.1-1.9-3.9-4-5.5-6.3
			c-1.8-2.5-3.3-5.1-4.6-7.9c-0.6-1.2-1-2.4-1.5-3.6c-0.4-1-0.3-2.1-0.1-3.1c0.3-1.5,0.5-3,0.9-4.4c1.3-4.8,3.3-9.3,5.7-13.7
			c1.3-2.5,2.9-4.9,4.3-7.3c0.2-0.3,0.4-0.6,0.7-1c0.3,0.2,0.6,0.5,0.9,0.7c1.5,1.2,3.2,2,5.1,2.4c0.6,0.1,1.3,0.1,1.9-0.3
			c-1.1-0.2-1.9-0.7-2.6-1.3c-2-1.6-3.6-3.4-4.7-5.8c-0.6-1.4-1.1-2.9-1.3-4.4c-0.1-0.5-0.2-1.1-0.2-1.7c0.8,0.3,1.5,0.5,2.1,0.8
			c1.8,0.7,3.5,1.6,5,2.8c1.6,1.4,3,3,3.2,5.2c0.1,0.5,0.1,1,0.2,1.5c0.4,1.4,1.3,2,2.8,1.9c0.5-2.3,0.5-4.5-0.3-6.8
			c2.6,0.2,5.2-0.1,7.7-0.8c2.5-0.6,4.9-1.5,7.1-2.8c-0.9,0.1-1.7,0.3-2.6,0.4c-0.7,0.1-1.4,0.2-2.1,0.3c-3.1,0.3-6.1,0.3-9.2,0.3
			c-0.7,0-1.3,0.2-2,0.3c-0.2,0-0.4-0.1-0.5-0.2c-0.8-0.6-1.5-1.3-2.3-1.9c-0.5-0.4-1.1-0.6-1.7-0.9c0.8-0.6,1.6-1.3,2.4-1.9
			c1.5-1.1,3-2.1,4.6-3.1c2-1.2,4.1-2.2,6.5-2.4c1.1-0.1,2.2-0.3,3.3-0.3c1.1,0,2.2,0.2,3.2,0.4c0.1,0,0.2,0,0.2-0.1
			c-5.5-3.7-11.4-5.2-17.9-2.4c0.2-0.3,0.4-0.6,0.6-0.9c0.2-0.3,0.5-0.5,0.7-0.8c0.2-0.3,0.5-0.6,0.8-0.8c1-0.7,1.9-1.4,3-2
			c1.8-0.9,3.7-1.1,5.7-0.9c0.9,0.1,1.8,0.2,2.7,0.2c0.1-1,0-2.1-0.4-3.1c-0.4-1-0.8-1.9-1.3-3c4.3,1.3,8.1,3.3,11.5,6.1
			c3.5,2.8,6.2,6.3,8.2,10.2c-1.3,1.3-2.6,2.5-3.8,3.8c-1.1,1.1-2.1,2.3-3,3.5c-0.4,0.6-0.6,1.5-0.7,2.3c-0.2,1.3,0.2,2.5,0.6,3.6
			c0.4,1.1,0.9,2.2,1.6,3.2c0.9,1.4,2.2,2.5,3.6,3.4c2.1,1.3,4.3,1.6,6.7,1.4c2.2-0.2,4.3-0.9,5.9-2.4c0.7-0.7,1.4-1.4,2-2.2
			c0.5-0.6,0.9-1.3,1.3-2c0.2-0.3,0.4-0.3,0.6-0.1c0.6,0.6,1.2,1.1,1.7,1.6c0.7,0.7,1.4,1.3,2.1,2c1.1,1.1,2.2,2.1,3.1,3.3
			c2.1,2.4,4.1,4.8,6.1,7.2c1.9,2.3,3.5,4.8,4.9,7.3c1.3,2.3,2.4,4.7,3.1,7.2c0.4,1.2,0.5,2.5,0.7,3.7c0.5,2.9-0.3,5.6-1.3,8.3
			c-1,2.6-2.2,5-3.9,7.2c-0.9,1.3-1.9,2.5-2.9,3.6c-0.9,1-1.9,2-2.9,2.9c-1.7,1.4-3.4,2.7-5.2,3.9c-1.7,1.1-3.6,2-5.5,2.7
			c-2.3,0.9-4.5,0.7-6.7-0.1c-2.7-0.9-5.2-2.2-7.6-3.5c-1.1-0.6-2.2-1.2-3.3-1.8c-1-0.6-1.5-1.5-1.8-2.6c-0.3-1.5-0.3-3,0-4.5
			c0.6-3.7,2-7,3.6-10.3c1.5-3,3.5-5.6,6-7.8c2.1-1.8,4.3-3.4,6.7-4.7C128,74.3,129.1,73.7,130.2,73.1
			C130.2,73.1,130.2,73.1,130.2,73.1z M101.5,61.2c-0.7-2.4-2.1-4.4-4.5-5.4c-1.5-0.6-3.6-0.3-4.7,0.9c-1.8,1.7-2.2,3.9-2.1,6.3
			c0.1,1.5,0.5,2.9,1.3,4.2c0.9,1.6,2.1,2.9,3.9,3.4c2.1,0.7,4-0.1,5.2-1.8C101.6,67.4,101.8,62.1,101.5,61.2z M125.2,103.9
			c0-0.2,0-0.4,0-0.6c-0.4-2.1-1.3-4-2.9-5.5c-1.1-1.1-2.9-1-3.8,0.4c-0.7,1.1-0.7,2.2-0.4,3.4c0.3,1.7,1.2,3.1,2.6,4.1
			c0.8,0.6,1.8,0.9,2.8,0.7C124.5,106.3,125.3,105.5,125.2,103.9z"/>
		<path class="st3" d="M124.4,29.8c1.3,4.4,3.9,7.4,8.8,7.8c-0.4,0.7-0.9,1.3-1.3,2c-1.2,1.9-2.4,3.7-3.7,5.6
			c-0.1,0.2-0.4,0.3-0.5,0.3c-2.7,0.1-5.2-0.6-7.3-2.3c-1.3-1-2.3-2.2-3-3.7c-0.3-0.6-0.6-1.2-0.9-1.8c-0.1-0.3-0.1-0.5,0.1-0.7
			c1.3-1.3,2.6-2.5,3.9-3.8C121.8,32.1,123.1,31,124.4,29.8z"/>
		<path class="st4" d="M125.6,28.7c2.9-2.5,5.9-5.1,8.9-7.7c1,3.1,2.7,5.1,6.2,5.1c-0.5,0.8-0.9,1.5-1.4,2.2
			c-1.4,2.1-2.7,4.2-4.1,6.3c-0.2,0.4-0.5,0.5-0.8,0.4c-2.3-0.3-4.4-1-6.2-2.5C127.1,31.5,126.3,30.2,125.6,28.7z"/>
		<path class="st5" d="M126.2,48.6c-1.2,1.8-2.5,3.4-4.6,4.2c-1.9,0.7-3.7,0.5-5.4-0.4c-1.8-1-3.1-2.5-4-4.3
			c-0.6-1.2-0.9-2.4-0.9-3.7c0.1-1.3,0.5-2.5,1.5-3.5c0.5-0.5,0.9-1,1.4-1.5c0.1-0.1,0.2-0.2,0.4-0.4
			C116.5,44.6,120.1,48.1,126.2,48.6z"/>
		<path class="st6" d="M135.3,20.4c1.4-1.6,13.9-11.2,15.2-11.7c-0.2,0.4-0.3,0.8-0.5,1.1c-0.9,1.7-1.7,3.4-2.7,5
			c-1.1,1.9-2.2,3.8-3.4,5.7c-0.7,1.2-1.4,2.4-2.2,3.6c-0.3,0.4-0.9,0.3-1.3,0.3c-1.5-0.2-2.7-0.8-3.7-1.9
			C136.2,21.9,135.8,21.1,135.3,20.4z"/>
		<path class="st1" d="M65.6,93.1c0.1,0.1,0.2,0.3,0.2,0.3c0.7,0.4,0.5,1,0.3,1.7c-0.6,1.7-1.3,3.5-1.9,5.3c-1.4,4-2.9,8.1-4.4,12.1
			C61.7,105.9,63.6,99.5,65.6,93.1z"/>
		<path d="M100.6,68.8c-1.3,1.7-3.2,2.5-5.2,1.8c-1.8-0.6-3-1.8-3.9-3.4c-0.7-1.3-1.2-2.7-1.3-4.2c-0.2-2.4,0.3-4.5,2.1-6.3
			c1.2-1.2,3.2-1.5,4.7-0.9c2.5,1,3.8,3,4.5,5.4C101.8,62.1,101.6,67.4,100.6,68.8z M93.5,64.1c1.6,0.1,2.6-1.5,2.6-2.9
			c0-1-0.4-1.8-1.2-2.5c-1.2-1.1-3-0.8-3.8,0.7c-0.4,0.7-0.5,1.4-0.4,2.1C91,62.8,92.2,64.2,93.5,64.1z"/>
		<path d="M125.2,103.9c0.1,1.6-0.7,2.3-1.7,2.5c-1,0.2-2-0.1-2.8-0.7c-1.4-1-2.3-2.4-2.6-4.1c-0.2-1.2-0.2-2.3,0.4-3.4
			c0.9-1.4,2.7-1.5,3.8-0.4c1.6,1.5,2.5,3.4,2.9,5.5C125.2,103.6,125.2,103.8,125.2,103.9z"/>
		<path class="st1" d="M93.5,64.1c-1.3,0.1-2.5-1.3-2.8-2.6c-0.1-0.8,0-1.4,0.4-2.1c0.8-1.5,2.5-1.8,3.8-0.7
			c0.7,0.7,1.2,1.5,1.2,2.5C96.1,62.6,95,64.2,93.5,64.1z"/>
	</g>
</g>
<path class="st7" d="M95.3,70.6c0,0-8.2-3.5-8.8-11.1c-0.7-7.5,9.8-3.9,9.8-3.9s-11.3,4-2.5,9.7C97.4,67.6,95.3,70.6,95.3,70.6z"/>
<path class="st7" d="M96.6,88.7c0,0,6.4,2.2,19.1,5.3c10.4,2.5,22.4,5.7,27.4,4.2c-2.6,3-6.3,6.7-13,9.2
	C125.9,109.1,111.9,109.8,96.6,88.7z"/>
<path class="st7" d="M91.7,90.7l-3,11.2l-5,0.8l-6.2-3.4c0,0,6.4-10.2,5.9-22.9L91.7,90.7z"/>
<path class="st7" d="M128.3,52.1c0,0,10.3,9.2,18,20.7c2.8,4.3,2.4,12.4,1.3,10.9c-16.1-22.9-35.4-20.8-38-29.2
	c-2.7-8.6-1.2-12.4-1.2-12.4s2.3,12.1,7.1,13s11.1-3.4,11.1-3.4L128.3,52.1z"/>
<path class="st7" d="M111.2,40.5c0,0-0.7-9.8-9.1-14.5c-3.6-2-9.3-0.9-13.9,2.1c1.3,0.1,13.9,1.9,14.3,5.5c0,0,0,0-5.1,0.1
	C88,34,82.9,39.9,82.9,39.9l-0.2,1.4l3,2.1c0,0,5,2,8.7,2C103.5,45.5,111.2,40.5,111.2,40.5z"/>
<path class="st7" d="M73.5,38.8c0,0,6,4.6,9.1,11.5c0,0,1.4,1.2,2.8,0c1.4-1.3-2.7-9-2.7-9L73.3,38l-1.6,1.2L73.5,38.8z"/>
<path class="st7" d="M82.4,52.1c0,0-8.2,8.5-11,13.9c-2.8,5.4-4,10.4-4,10.4s2.2-15.3,8-26.3l2.2,0.7L82.4,52.1z"/>
<path class="st1" d="M144.4,13.5l-28.8,28.9c-0.7,0.7-1.9-0.2-1.3-1c0,0,0,0,0,0C115,40.2,144.4,13.5,144.4,13.5z"/>
<g>
	<path class="st4" d="M61,119.7c0.6,5.8,0.9,11.1,0.9,15.9c0,1.2,0,2.3-0.1,3.5v0.9c0,9.3-2.3,14.2-6.8,14.7l-1.1,0.1
		c-2.7,0-4.6-1.2-5.7-3.5c-0.9-2.8-1.3-7-1.3-12.6v-1.7h0c0-0.7,0-1.4,0-2.2c0-3.6,0.3-8.3,0.8-14l4.9,0.3
		c-0.6,6.5-0.8,11.8-0.6,15.9c-0.1,4.7,0,7.8,0.2,9.3c0.2,1.5,0.9,2.4,2.1,2.8v0c1.1,0.1,1.8-0.8,2.1-2.9c0.3-2.1,0.4-5,0.5-8.7
		c-0.1-4.5-0.3-10.3-0.8-17.3L61,119.7z"/>
	<path class="st4" d="M73.1,119.8l4.9-0.1l0.2,35l-4.7-0.1l-5.6-18.3l0.3,18l-4.9,0.1l0.1-33.9l4.6-0.2l5.2,17.5L73.1,119.8z"/>
	<path class="st4" d="M80.4,119.8h4.7l0.4,35.2l-4.7,0.1L80.4,119.8z"/>
	<path class="st4" d="M100.9,150.4c-0.8,3-2.8,4.5-6,4.7v0c-3.2-0.2-5.2-1.8-6-4.7c-0.8-2.9-1.2-7.2-1.2-12.9h0
		c0-5.7,0.4-10,1.2-12.9c0.8-2.9,2.8-4.5,6-4.7v0c3.2,0.1,5.2,1.7,6,4.7c0.6,2.1,0.9,4.9,1.1,8.3l-4.8,0.6c-0.1-2-0.2-3.6-0.3-4.9
		c-0.2-2.1-0.9-3.2-1.8-3.2c-1,0.2-1.6,1.3-1.8,3.3c-0.2,2-0.4,5-0.4,8.9s0.1,6.9,0.4,8.9c0.2,2,0.9,3.1,1.8,3.3v0
		c1-0.1,1.6-1.2,1.9-3.2c0.2-1.3,0.3-3,0.3-5l4.8,0.2C101.9,145.2,101.5,148.2,100.9,150.4z"/>
	<path class="st4" d="M117.3,137.4c0,5.7-0.4,10-1.2,13c-0.8,3-2.8,4.5-6,4.7v0c-3.2-0.2-5.3-1.8-6-4.7c-0.8-2.9-1.2-7.2-1.2-12.9h0
		c0-5.6,0.4-9.9,1.2-12.8c0.8-2.9,2.8-4.5,6-4.7v0c3.2,0.1,5.2,1.6,6,4.6S117.3,131.7,117.3,137.4L117.3,137.4z M112.1,128.4
		c-0.3-2.1-0.9-3.1-1.8-3.2v0c-1,0.1-1.6,1.2-1.9,3.3c-0.2,2-0.4,5-0.4,8.9s0.1,6.9,0.4,8.9c0.2,2,0.9,3.1,1.8,3.3v0
		c1-0.1,1.6-1.2,1.8-3.2c0.3-2.1,0.4-5,0.4-9C112.4,133.5,112.3,130.5,112.1,128.4z"/>
	<path class="st4" d="M125,142.2c-0.4,0.1-0.8,0.1-1.2,0.1l-0.1,6.8l0.1,5.6l-4.9-0.1l0.1-34.4c1.6-0.2,3-0.4,4.3-0.4
		c2.1,0.1,3.6,0.2,4.4,0.4c3,0.8,4.6,4.7,4.9,11.6c-0.1,4.1-1.2,7-3.3,8.6l4.4,14l-4.8,0.6L125,142.2z M123.8,124.2l0,13
		c1.2-0.1,2.1-0.4,2.6-0.9c0.7-0.6,1-2.3,1.2-5c0-2.6-0.2-4.3-0.4-5.1C126.7,124.5,125.6,123.9,123.8,124.2z"/>
	<path class="st4" d="M144.7,119.8l4.9-0.1l0.2,35l-4.7-0.1l-5.6-18.3l0.3,18l-4.9,0.1l0.1-33.9l4.6-0.2l5.2,17.5L144.7,119.8z"/>
</g>
</svg>
