<?xml version="1.0" standalone="no"?>
<!DOCTYPE svg PUBLIC "-//W3C//DTD SVG 1.0//EN" "http://www.w3.org/TR/2001/REC-SVG-20010904/DTD/svg10.dtd">
<svg xmlns="http://www.w3.org/2000/svg" xmlns:xlink="http://www.w3.org/1999/xlink" id="body_1" width="195" height="146">

<g transform="matrix(0.1904297 0 0 0.1901042 0 0)">
	<g transform="matrix(1.568868 0 0 1.568868 0 108.8128)">
	</g>
    <path transform="matrix(1.568868 0 0 1.568868 0 108.8128)"  d="M12.48999 142.24C 12.48999 65.37302 74.87911 3.060013 151.84 3.060013C 228.8009 3.060013 291.19 65.37302 291.19 142.24C 291.19 219.107 228.8009 281.42 151.84 281.42C 74.87911 281.42 12.48999 219.107 12.48999 142.24" stroke="none" fill="#FFFFFF" fill-rule="nonzero" />
	<g transform="matrix(1.568868 0 0 1.568868 0 108.8128)">
	</g>
    <path transform="matrix(1.568868 0 0 1.568868 0 108.8128)"  d="M108.51 216.22C 108.4706 216.2298 108.4294 216.2298 108.39 216.22C 108.2905 216.2223 108.194 216.1866 108.12 216.12C 92.68035 203.4939 81.01706 186.8588 74.41 168.04C 74.35944 167.9323 74.35944 167.8077 74.41 167.7C 74.46915 167.5995 74.5666 167.5273 74.68 167.5C 56 171.86 38 176.72 21.13 182.08C 21.13 182.08 19.36 182.99 19.7 184.15C 29.91 218.18 51 245 79.93 261.93C 79.99286 261.9696 80.06572 261.9904 80.14 261.99C 80.2537 261.9901 80.36235 261.9431 80.44 261.86C 84.17001 258.06 89.15 253.75 93.97 249.6C 96.56 247.37 98.97 245.26 101.07 243.39C 101.1317 243.3291 101.1764 243.2533 101.2 243.17C 101.97 239.8 104.39 229.8 108.63 216.17C 108.5951 216.2011 108.5543 216.2249 108.51 216.24" stroke="none" fill="#C83F7C" fill-rule="nonzero" />
	<g transform="matrix(1.568868 0 0 1.568868 0 108.8128)">
	</g>
    <path transform="matrix(1.568868 0 0 1.568868 0 108.8128)"  d="M128.67 163.7L128.67 163.62L128.67 163.7" stroke="none" fill="#61116A" fill-rule="nonzero" />
	<g transform="matrix(1.568868 0 0 1.568868 0 108.8128)">
	</g>
    <path transform="matrix(1.568868 0 0 1.568868 0 108.8128)"  d="M290.27 120.52C 278.9285 53.45719 220.8551 4.363358 152.84 4.34C 76 4.34 13.47 66.86 13.47 143.71C 13.47 150.98 13.47 155.31 14.34 159.71C 14.37236 159.8699 14.49243 159.9977 14.65 160.04L14.65 160.04L14.75 160.04C 14.87464 160.041 14.99414 159.9904 15.08 159.9C 31 140.67 67.91 100.94 111.43 86.18C 98.63904 90.42465 86.51738 96.46865 75.43 104.13C 89 60.85 129.23 30.84 177 30.84C 224.5913 30.92206 266.4005 62.44707 279.57 108.18C 283.2284 112.1683 286.5717 116.4344 289.57 120.94C 289.6431 121.0677 289.7833 121.1417 289.93 121.13C 290.0405 121.1327 290.1474 121.0907 290.2264 121.0135C 290.3055 120.9363 290.3501 120.8305 290.35 120.72C 290.3661 120.6543 290.3661 120.5857 290.35 120.52" stroke="none" fill="#F68B1F" fill-rule="nonzero" />
	<g transform="matrix(1.568868 0 0 1.568868 0 108.8128)">
	</g>
    <path transform="matrix(1.568868 0 0 1.568868 0 108.8128)"  d="M167.22 103.15L134.89 111.7C 134.7597 111.7225 134.6522 111.8146 134.61 111.94C 134.5762 112.0595 134.6064 112.1881 134.69 112.28L134.69 112.28L146.77 127.56C 146.85 127.66 146.96 127.56 147.08 127.56C 147.2 127.56 147.32 127.65 147.39 127.56C 153.94 117.97 158.18 111.79 167.55 103.87C 167.6974 103.7529 167.7432 103.5489 167.66 103.38C 167.5732 103.2125 167.3834 103.1258 167.2 103.17" stroke="none" fill="#00A56A" fill-rule="nonzero" />
	<g transform="matrix(1.568868 0 0 1.568868 0 108.8128)">
	</g>
    <path transform="matrix(1.568868 0 0 1.568868 0 108.8128)"  d="M81.2 120.06L81.3 120.06L124.21 108.94C 124.3314 108.9027 124.4279 108.8099 124.47 108.69C 124.5304 108.5776 124.5304 108.4424 124.47 108.33L124.47 108.33L117.47 97.98C 117.3665 97.82784 117.1725 97.76592 117 97.82999C 103.85 102.99 95.68999 106.91 80.99999 119.36C 80.86117 119.4876 80.82436 119.692 80.91 119.86C 80.98208 119.9849 81.11581 120.0613 81.25999 120.06" stroke="none" fill="#00A56A" fill-rule="nonzero" />
	<g transform="matrix(1.568868 0 0 1.568868 0 108.8128)">
	</g>
    <path transform="matrix(1.568868 0 0 1.568868 0 108.8128)"  d="M128.47 114.06C 128.3703 113.9337 128.2072 113.8754 128.05 113.91L128.05 113.91L75 127.17C 74.81797 127.209 74.69098 127.3741 74.7 127.56C 74.7 127.75 74.88 127.84 75.07999 127.86L75.07999 127.86L140.67 132.05C 140.82 132.05 140.96 132.05 141.02 131.97C 141.08 131.89 141.08 131.8 141.02 131.67" stroke="none" fill="#00A56A" fill-rule="nonzero" />
	<g transform="matrix(1.568868 0 0 1.568868 0 108.8128)">
	</g>
    <path transform="matrix(1.568868 0 0 1.568868 0 108.8128)"  d="M139.94 138.36L66.12 132.67C 66.01007 132.6696 65.90364 132.7087 65.82 132.78C 57.46 139.35 47.82 148.94 35.36 164.61C 35.2547 164.7415 35.2547 164.9285 35.36 165.06C 35.42545 165.1817 35.55182 165.2583 35.69 165.26L35.69 165.26L35.79 165.26C 48.37 162.16 83.16 154.35 134.3 148.9C 134.425 148.8811 134.5331 148.8028 134.59 148.69C 136.87 144.36 137.94 142.87 140.27 138.98C 140.3359 138.8619 140.3359 138.7181 140.27 138.6C 140.2037 138.4761 140.0799 138.3935 139.94 138.38" stroke="none" fill="#00A56A" fill-rule="nonzero" />
	<g transform="matrix(1.568868 0 0 1.568868 0 108.8128)">
	</g>
    <path transform="matrix(1.568868 0 0 1.568868 0 108.8128)"  d="M172.86 95.31C 165.12 92.31 156.6 91.39 148.37 91.39C 139.7159 91.43088 131.1335 92.96332 123 95.92C 122.878 95.96211 122.7821 96.05799 122.74 96.18C 122.7065 96.30587 122.7363 96.44019 122.82 96.54L122.82 96.54L130.61 107.18C 130.6792 107.2764 130.7914 107.3325 130.91 107.33L130.91 107.33L131.01 107.33L172.86 96.07C 173.0287 96.02336 173.1492 95.87473 173.16 95.7C 173.1666 95.52752 173.0618 95.37029 172.9 95.31" stroke="none" fill="#00A56A" fill-rule="nonzero" />
	<g transform="matrix(1.568868 0 0 1.568868 0 108.8128)">
	</g>
    <path transform="matrix(1.568868 0 0 1.568868 0 108.8128)"  d="M233.55 146.89L227.33 147.32C 220.86 147.76 215.05 147.85 208.91 148.44C 208.6023 148.4709 208.3685 148.7307 208.37 149.04L208.37 149.04L208.37 174.04C 208.3687 174.2443 208.4751 174.4343 208.65 174.54C 208.7465 174.5986 208.8571 174.6297 208.97 174.63C 209.0556 174.6279 209.1402 174.611 209.22 174.58C 214.52 172.1 219.4 170.21 225.02 168.2C 228.22 167.06 231.24 165.98 233.81 164.96C 234.0363 164.8721 234.1839 164.6527 234.18 164.41L234.18 164.41L234.18 147.51C 234.1858 147.3423 234.1161 147.1808 233.99 147.07C 233.8745 146.9538 233.7132 146.8951 233.55 146.91" stroke="none" fill="#61116A" fill-rule="nonzero" />
	<g transform="matrix(1.568868 0 0 1.568868 0 108.8128)">
	</g>
    <path transform="matrix(1.568868 0 0 1.568868 0 108.8128)"  d="M263.26 145.5C 255.95 145.78 248.11 146.26 239.91 146.81C 239.5967 146.841 239.3585 147.1052 239.36 147.42L239.36 147.42L239.36 162.63C 239.3608 162.8238 239.4536 163.0057 239.61 163.12C 239.7104 163.1874 239.8291 163.2223 239.95 163.22C 240.0163 163.2305 240.0837 163.2305 240.15 163.22C 247.15 160.66 253.46 159.4 259.85 157.65L259.85 157.65L263.44 156.65C 263.6967 156.5742 263.872 156.3376 263.87 156.07L263.87 156.07L263.87 146.07C 263.87 145.9113 263.805 145.7595 263.69 145.65C 263.5754 145.5388 263.4194 145.4808 263.26 145.49" stroke="none" fill="#61116A" fill-rule="nonzero" />
	<g transform="matrix(1.568868 0 0 1.568868 0 108.8128)">
	</g>
    <path transform="matrix(1.568868 0 0 1.568868 0 108.8128)"  d="M169.91 152.79L166.29 153.22C 162.39 153.72 159.46 154.3 155.29 154.87C 155.0868 154.8926 154.9113 155.0223 154.83 155.21C 144.62 177.21 137.56 199.69 133.12 215.55C 133.0603 215.7913 133.1557 216.0445 133.3598 216.1864C 133.5639 216.3284 133.8344 216.3298 134.04 216.19C 143.31 209.55 153.04 203.52 161.65 198.19C 164.92 196.19 167.41 194.1 170.35 192.24C 170.5211 192.1318 170.6234 191.9423 170.62 191.74L170.62 191.74L170.62 153.37C 170.6219 153.2009 170.5486 153.0397 170.42 152.93C 170.294 152.8122 170.1199 152.7604 169.95 152.79" stroke="none" fill="#61116A" fill-rule="nonzero" />
	<g transform="matrix(1.568868 0 0 1.568868 0 108.8128)">
	</g>
    <path transform="matrix(1.568868 0 0 1.568868 0 108.8128)"  d="M202.65 149.06C 193.85 149.86 184.58 150.74 176.51 151.77C 176.2118 151.8056 175.9879 152.0596 175.99 152.36L175.99 152.36L175.99 189.67C 175.9917 189.8814 176.101 190.0775 176.28 190.19C 176.375 190.2421 176.4816 190.2696 176.59 190.27C 176.6921 190.2698 176.7922 190.2422 176.88 190.19C 184.99 185.42 194.25 181.19 202.41 177.47L202.41 177.47L202.95 177.24C 203.1632 177.1451 203.3004 176.9334 203.3 176.7L203.3 176.7L203.3 149.7C 203.3063 149.53 203.2322 149.367 203.1 149.26C 202.9803 149.1446 202.8149 149.0894 202.65 149.11" stroke="none" fill="#61116A" fill-rule="nonzero" />
	<g transform="matrix(1.568868 0 0 1.568868 0 108.8128)">
	</g>
    <path transform="matrix(1.568868 0 0 1.568868 0 108.8128)"  d="M288.6 145.28C 288.5453 145.0081 288.2966 144.8194 288.02 144.84C 281.18 144.91 276.38 145.16 269.38 145.41C 269.0603 145.4206 268.8052 145.6802 268.8 146L268.8 146L268.8 154.56C 268.8055 154.8875 269.0725 155.15 269.4 155.15L269.4 155.15L269.55 155.15C 276.47 153.36 281.02 152.74 289.21 151.32C 289.3655 151.299 289.5042 151.2114 289.59 151.08C 289.6803 150.9524 289.7163 150.7941 289.69 150.64C 289.4542 148.833 289.0899 147.0452 288.6 145.29" stroke="none" fill="#61116A" fill-rule="nonzero" />
	<g transform="matrix(1.568868 0 0 1.568868 0 108.8128)">
	</g>
    <path transform="matrix(1.568868 0 0 1.568868 0 108.8128)"  d="M148.74 81.06L221.23 80.47C 248 81.47 266.43 93.88 279.57 108.28C 266.5132 62.45534 224.6485 30.84758 177 30.84C 128.5 30.84 88.78 61.39 75.2 104.67C 97.28 89.67 122.7 79.61 148.75 81.06" stroke="none" fill="#FFC20E" fill-rule="nonzero" />
	<g transform="matrix(1.568868 0 0 1.568868 0 108.8128)">
	</g>
    <path transform="matrix(1.568868 0 0 1.568868 0 108.8128)"  d="M138.32 236.33C 167.3949 247.3375 199.825 245.1142 227.1257 230.2418C 254.4264 215.3694 273.8811 189.3277 280.4 158.93C 216.33 173.45 168.45 208.14 138.32 236.33" stroke="none" fill="#005495" fill-rule="nonzero" />
	<g transform="matrix(1.568868 0 0 1.568868 0 108.8128)">
	</g>
    <path transform="matrix(1.568868 0 0 1.568868 0 108.8128)"  d="M131.31 157.12C 131.2192 156.9933 131.0631 156.9308 130.91 156.96C 111.42 160.13 92.84 163.32 74.7 167.51C 74.58401 167.5431 74.48431 167.6179 74.42001 167.72C 74.36944 167.8277 74.36944 167.9523 74.42001 168.06C 81.02383 186.8805 92.68771 203.5164 108.13 216.14C 108.2039 216.2066 108.3005 216.2423 108.4 216.24C 108.4395 216.249 108.4805 216.249 108.52 216.24C 108.6509 216.2032 108.7532 216.1009 108.79 215.97C 115.56 194.35 122.79 175.07 131.36 157.57C 131.4389 157.4375 131.4389 157.2725 131.36 157.14" stroke="none" fill="#61116A" fill-rule="nonzero" />
	<g transform="matrix(1.568868 0 0 1.568868 0 108.8128)">
	</g>
    <path transform="matrix(1.568868 0 0 1.568868 0 108.8128)"  d="M210.62 141.18C 215.3 140.82 219.72 140.52 224.39 140.18C 224.5884 140.1611 224.7646 140.045 224.86 139.87C 224.9542 139.6952 224.9542 139.4848 224.86 139.31C 222.68 135.12 215.54 124.31 209.72 118.57C 209.5532 118.3876 209.2963 118.3175 209.06 118.39C 208.8319 118.4828 208.682 118.7037 208.68 118.95L208.68 118.95L208.68 140.42C 208.68 140.42 208.87 141.15 210.61 141.14" stroke="none" fill="#80C342" fill-rule="nonzero" />
	<g transform="matrix(1.568868 0 0 1.568868 0 108.8128)">
	</g>
    <path transform="matrix(1.568868 0 0 1.568868 0 108.8128)"  d="M233.12 137C 233.2404 137.1339 233.3913 137.2368 233.56 137.3C 233.85 137.37 234.2 137.3 234.2 136.9L234.2 136.9L234.2 90.2C 234.2021 89.89964 233.9782 89.64563 233.68 89.61C 232.6639 89.49924 231.6419 89.45248 230.62 89.47C 227.1244 89.48228 223.6347 89.75639 220.18 90.29C 216.3411 90.78404 212.5829 91.77571 209 93.24C 208.8094 93.34236 208.6932 93.54378 208.7 93.75999L208.7 93.75999L208.7 108.2C 208.7006 108.3958 208.7799 108.5832 208.92 108.72C 208.92 108.72 223.69 120.8 233.12 137" stroke="none" fill="#80C342" fill-rule="nonzero" />
	<g transform="matrix(1.568868 0 0 1.568868 0 108.8128)">
	</g>
    <path transform="matrix(1.568868 0 0 1.568868 0 108.8128)"  d="M190.74 105.19C 190.5153 105.0398 190.2167 105.0647 190.02 105.25C 185.1248 109.4867 180.6812 114.2186 176.76 119.37C 176.6822 119.4701 176.64 119.5932 176.64 119.72L176.64 119.72L176.64 143.72C 176.6433 143.8879 176.7156 144.0471 176.84 144.16C 176.9499 144.2582 177.0926 144.3117 177.24 144.31L177.24 144.31L177.3 144.31C 185.56 143.31 194.89 142.46 203.13 141.68C 203.433 141.6535 203.6618 141.3939 203.65 141.09L203.65 141.09L203.65 114.44C 203.662 114.3258 203.6298 114.2113 203.56 114.12C 198.95 109.07 194.79 107.5 190.74 105.19" stroke="none" fill="#80C342" fill-rule="nonzero" />
	<g transform="matrix(1.568868 0 0 1.568868 0 108.8128)">
	</g>
    <path transform="matrix(1.568868 0 0 1.568868 0 108.8128)"  d="M240 90.23C 239.8328 90.21679 239.6673 90.27077 239.54 90.38C 239.4083 90.49264 239.3317 90.65672 239.33 90.83L239.33 90.83L239.33 139.06C 239.33 139.06 239.33 139.39 239.77 139.38C 248.38 139.06 253.77 138.51 262.99 138.31C 263.3 138.31 263.56 138.31 263.56 137.98L263.56 137.98L263.56 102.7C 263.5615 102.5429 263.5003 102.3918 263.39 102.28C 258 96.83 251.26 92.52 240 90.28" stroke="none" fill="#80C342" fill-rule="nonzero" />
	<g transform="matrix(1.568868 0 0 1.568868 0 108.8128)">
	</g>
    <path transform="matrix(1.568868 0 0 1.568868 0 108.8128)"  d="M287.11 136.93C 282.95 125.01 277.79 117.54 269.46 107.65C 269.2914 107.4827 269.0378 107.4352 268.82 107.53C 268.6013 107.6254 268.46 107.8414 268.46 108.08L268.46 108.08L268.46 137.78C 268.46 138.38 268.9 138.3 268.9 138.3C 275.51 138.01 280.28 137.77 286.75 137.77C 286.93 137.77 287.1 137.77 287.21 137.62C 287.2121 137.3863 287.1783 137.1536 287.11 136.93" stroke="none" fill="#80C342" fill-rule="nonzero" />
	<g transform="matrix(1.568868 0 0 1.568868 0 108.8128)">
	</g>
    <path transform="matrix(1.568868 0 0 1.568868 0 108.8128)"  d="M203.32 96.15C 203.1219 96.05016 202.8881 96.05016 202.69 96.15C 200.065 97.58571 197.5393 99.19601 195.13 100.97C 198.1459 102.1965 201.0086 103.7705 203.66 105.66L203.66 105.66L203.66 96.66C 203.6465 96.44127 203.5167 96.24658 203.32 96.15" stroke="none" fill="#80C342" fill-rule="nonzero" />
	<g transform="matrix(1.568868 0 0 1.568868 0 108.8128)">
	</g>
    <path transform="matrix(1.568868 0 0 1.568868 0 108.8128)"  d="M158.37 145.94C 157.87 146.94 159.11 146.66 159.11 146.66C 160.88 146.43 162.79 146.18 164.67 145.96C 167.01 145.68 168.67 145.29 170.67 145.03C 170.9634 144.9763 171.1749 144.7182 171.17 144.42L171.17 144.42L171.34 127.55C 171.34 127.27 171.21 126.85 170.95 126.79C 170.95 126.79 166.56 131.79 158.72 145.45" stroke="none" fill="#80C342" fill-rule="nonzero" />
	<g transform="matrix(1.568868 0 0 1.568868 0 108.8128)">
	</g>
    <path transform="matrix(1.568868 0 0 1.568868 0 108.8128)"  d="M291.43 156.74C 291.3284 156.6594 291.1986 156.6234 291.07 156.64C 281.6272 158.4293 272.2816 160.699 263.07 163.44C 268.7 161.78 274.47 160.26 280.37 158.93C 273.8499 189.279 254.4366 215.284 227.1933 230.1627C 199.95 245.0413 167.5779 247.3184 138.52 236.4C 126.1274 247.9121 114.7178 260.439 104.41 273.85C 104.3285 273.9545 104.3025 274.0919 104.3402 274.219C 104.3779 274.346 104.4747 274.447 104.6 274.49C 145.1548 289.4498 190.3549 284.7498 226.9642 261.7662C 263.5735 238.7827 287.4493 200.1162 291.6 157.09C 291.6094 156.96 291.562 156.8324 291.47 156.74" stroke="none" fill="#009BCA" fill-rule="nonzero" />
	<g transform="matrix(1.568868 0 0 1.568868 0 108.8128)">
	</g>
    <path transform="matrix(1.568868 0 0 1.568868 0 108.8128)"  d="M261.46 163.94C 259.24 164.6067 257.02 165.3067 254.8 166.04C 257 165.32 259.22 164.61 261.46 163.94" stroke="none" fill="#009BCA" fill-rule="nonzero" />
	<g transform="matrix(1.568868 0 0 1.568868 0 108.8128)">
	</g>
    <path transform="matrix(1.568868 0 0 1.568868 0 108.8128)"  d="M250.22 167.58L247.74 168.47L250.22 167.58" stroke="none" fill="#009BCA" fill-rule="nonzero" />
	<g transform="matrix(1.568868 0 0 1.568868 0 108.8128)">
	</g>
    <path transform="matrix(1.568868 0 0 1.568868 0 108.8128)"  d="M380.54 57.93L360 57.93L360 64.23L366.18 64.23L360.24 87.55L352.24 64.89L352.24 64.82L344.95 64.82L336.82 87.53L331.56 64.23L337.12 64.23L337.12 57.93L314.43 57.93L314.43 64.23L320.9 64.23L328 90.06C 330.16 97.89999 331.43 100.51 334.69 100.51C 337.95 100.51 339.01 98.74999 342.69 88.88L342.69 88.88L347.69 75.50999L353.04 90.37C 355.77 97.95999 356.69 100.51 359.65 100.51C 362.82 100.51 363.46 99.05 366.5 88.87L366.5 88.87L373.78 64.23L380.48 64.23" stroke="none" fill="#FFFFFF" fill-rule="nonzero" />
	<g transform="matrix(1.568868 0 0 1.568868 0 108.8128)">
	</g>
    <path transform="matrix(1.568868 0 0 1.568868 0 108.8128)"  d="M390 78.91L418.2 78.91L418.2 78.81001C 418.09 72.14001 416.11 66.64001 412.46 62.91C 408.8672 59.36227 403.9768 57.44297 398.93 57.6C 388.03 57.6 379.49 67.12 379.49 79.28C 379.49 85.6 381.49 90.99 385.27 94.88C 389.094 98.69553 394.2987 100.802 399.7 100.72L399.7 100.72L399.94 100.72C 403.766 100.7789 407.5145 99.63895 410.66 97.46C 413.9296 95.09705 416.2261 91.62376 417.12 87.69L417.12 87.69L417.12 87.61L411.44 85.08L411.35 85.08L411.35 85.17C 409.91 88.68999 406.41 92.87 401.27 93.03L401.27 93.03L400.89 93.03C 398.2126 93.12129 395.6121 92.12581 393.68 90.27C 391.3 87.96999 389.89 84.16 389.89 80.07999C 389.89 79.84999 389.89 79.63 389.89 79.41999C 389.89 79.20998 389.89 79.09999 389.89 78.93999M390.21 73.84999C 390.97 68.72999 394.5 63.56999 399.8 63.56999C 404.8 63.56999 408.05 67.56999 408.08 73.84999L408.08 73.84999L390 78.91z" stroke="none" fill="#FFFFFF" fill-rule="nonzero" />
	<g transform="matrix(1.568868 0 0 1.568868 0 108.8128)">
	</g>
    <path transform="matrix(1.568868 0 0 1.568868 0 108.8128)"  d="M441.25 73.46L440 73.09L438.51 72.63C 433.7 71.17 431.3 70.43999 431.3 67.3C 431.3 63.36 436.73 62.77999 439.97 62.77999C 442.6604 62.70342 445.3138 63.41982 447.6 64.84C 446.1845 65.64075 445.2645 67.09769 445.15 68.71999C 445.0824 70.01788 445.5706 71.28316 446.4924 72.19928C 447.4142 73.1154 448.6826 73.5957 449.98 73.52C 453.0944 73.54225 455.6416 71.0442 455.68 67.92999C 455.68 58.68999 444.28 57.30999 437.49 57.30999C 434.0165 57.34646 430.6057 58.23952 427.56 59.90999C 425 61.4 422 64.18 422 69C 422 77.55 428 79.63 434.87 82C 435.97 82.38 437.07 82.72 438.12 83.05C 442.55 84.41 446.38 85.58 446.38 89.51C 446.38 92.74001 443.07 94.66 437.55 94.66C 434.8452 94.65768 432.1758 94.04587 429.74 92.87C 431.0167 91.90019 431.8522 90.45975 432.06 88.87C 432.1276 87.56947 431.6384 86.30165 430.7146 85.38366C 429.7909 84.46567 428.5201 83.98432 427.22 84.06001C 425.765 84.07935 424.37 84.64306 423.31 85.64001C 422.1734 86.70039 421.5286 88.18552 421.53 89.74001C 421.53 93.66 423.48 96.61001 427.34 98.52C 431.2 100.43 435.88 100.82 439.18 100.82C 443.1672 100.9114 447.101 99.88985 450.54 97.87001C 454.1045 95.70094 456.2367 91.7912 456.13 87.62001C 456.13 78.00001 448.24 75.62001 441.28 73.46001" stroke="none" fill="#FFFFFF" fill-rule="nonzero" />
	<g transform="matrix(1.568868 0 0 1.568868 0 108.8128)">
	</g>
    <path transform="matrix(1.568868 0 0 1.568868 0 108.8128)"  d="M475.9 41.83L458.31 41.83L458.31 48.24L465.99 48.24L465.99 92.92L458.15 92.92L458.15 99.64L483.34 99.64L483.34 92.92L475.9 92.92" stroke="none" fill="#FFFFFF" fill-rule="nonzero" />
	<g transform="matrix(1.568868 0 0 1.568868 0 108.8128)">
	</g>
    <path transform="matrix(1.568868 0 0 1.568868 0 108.8128)"  d="M493.68 78.91L521.94 78.91L521.94 78.81001C 521.82 72.14001 519.84 66.64001 516.19 62.91C 512.5978 59.36127 507.707 57.44179 502.66 57.6C 491.77 57.6 483.23 67.12 483.23 79.28C 483.23 85.6 485.23 90.99 489 94.88C 492.8264 98.69804 498.0352 100.8047 503.44 100.72L503.44 100.72L503.67 100.72C 507.4965 100.7823 511.246 99.64201 514.39 97.46C 517.6626 95.10183 519.9573 91.62594 520.84 87.69L520.84 87.69L520.84 87.61L515.17 85.08L515.08 85.08L515.08 85.17C 513.64 88.68999 510.14 92.87 504.99 93.03C 502.1845 93.21799 499.4294 92.21616 497.4 90.27C 495.03 87.96999 493.61 84.16 493.61 80.07999C 493.61 79.84999 493.61 79.63 493.61 79.41999C 493.61 79.20998 493.61 79.09999 493.61 78.93999M493.94 73.84999C 494.7 68.72999 498.21 63.56999 503.52 63.56999C 508.52 63.56999 511.77 67.56999 511.8 73.84999L511.8 73.84999L493.68 78.91z" stroke="none" fill="#FFFFFF" fill-rule="nonzero" />
	<g transform="matrix(1.568868 0 0 1.568868 0 108.8128)">
	</g>
    <path transform="matrix(1.568868 0 0 1.568868 0 108.8128)"  d="M551.47 58.76L551.47 64.93999L557.11 64.93999L549.32 89.37L540.32 64.93999L546.17 64.93999L546.17 58.76L521.67 58.76L521.67 64.93999L528.77 64.93999L543.2499 99.55C 541.2499 108.81 538.4699 112.94 534.3499 112.94C 533.6584 112.9518 532.9677 112.888 532.2899 112.75C 533.5077 111.2474 534.209 109.3924 534.2899 107.46C 534.2899 104.46 532.0899 102.46 528.8299 102.46C 527.1623 102.4116 525.5453 103.0361 524.3433 104.193C 523.1413 105.3499 522.4553 106.9418 522.4399 108.61C 522.3549 111.5449 523.7628 114.3231 526.1799 115.99C 528.8406 117.6966 531.9614 118.5448 535.1199 118.42L535.1199 118.42L535.5898 118.42C 546.4998 118.18 550.3098 107.94 553.3798 99.71999L553.3798 99.71999L566.0898 64.92999L572.0898 64.92999L572.0898 58.76" stroke="none" fill="#FFFFFF" fill-rule="nonzero" />
	<g transform="matrix(1.568868 0 0 1.568868 0 108.8128)">
	</g>
    <path transform="matrix(1.568868 0 0 1.568868 0 108.8128)"  d="M318.87 148.55L318.87 142.55L326.92 142.55C 326.92 129.69 332.27 123.26 342.92 123.26C 351.68 123.26 355.71 129.26 355.71 133.1C 355.71 137.2 352.91 138.99 350.2 138.99C 347.49 138.99 344.94 137.28 344.94 134.27C 344.87 132.42 342.3 131.03 340.06 131.03C 337.06 131.03 332.47 133.5 332.47 140.71L332.47 140.71L332.47 146.9L341.38 146.9L341.38 152.9L332.47 152.9L332.47 181.02L341.07 181.02L341.07 187.53L318.87 187.53L318.87 181.02L326.92 181.02L326.92 148.55" stroke="none" fill="#FFFFFF" fill-rule="nonzero" />
	<g transform="matrix(1.568868 0 0 1.568868 0 108.8128)">
	</g>
    <path transform="matrix(1.568868 0 0 1.568868 0 108.8128)"  d="M374.41 169L374.41 162.11C 365.5 169.23 359.84 168.61 359.84 173.96C 359.84 176.28 360.77 178.22 363.34 178.22C 367.05 178.22 374.41 173.65 374.41 169M385.88 184.27C 381.07 184.18 376.66 182.4 375.11 176.75C 372.1382 181.4777 366.9029 184.2984 361.32 184.18C 354.96 184.18 350.62 180.78 350.62 174.18C 350.62 161.48 374.62 163.96 374.62 154.27C 374.62 148.15 371.21 146.27 366.72 146.27C 364.6929 146.2483 362.6857 146.6716 360.84 147.51C 362.54 147.75 364.32 150.51 364.32 152.7L364.32 152.7L364.32 153C 364.32 156 361.92 158.43 358.12 158.43C 354.32 158.43 351.92 155.64 351.92 152L351.92 152L351.92 151.84C 352 145.41 359.92 141.38 367.57 141.38C 375.62 141.38 384.31 144.38 384.31 155.02L384.31 155.02L384.31 171.13C 384.31 173.69 384.62 177.8 388.1 177.8C 391.36 177.8 391.74 174.24 391.74 171.29L391.74 171.29L391.74 166.29L396.74 166.29L396.74 171.56C 396.74 181.86 391.74 184.27 386.12 184.27L386.12 184.27L374.41 169z" stroke="none" fill="#FFFFFF" fill-rule="nonzero" />
	<g transform="matrix(1.568868 0 0 1.568868 0 108.8128)">
	</g>
    <path transform="matrix(1.568868 0 0 1.568868 0 108.8128)"  d="M398.74 183.18L398.74 176.67L406.1 176.67L406.1 148.55L398.74 148.55L398.74 143L415.54 142.15L415.54 149.66C 417.7541 144.671 422.722 141.4757 428.18 141.53C 431.36 141.53 436.23 142 438.33 149.66C 440.5 143.55 446.46 141.53 451.42 141.53C 455.29 141.53 463.2 142.85 463.2 155.86L463.2 155.86L463.2 176.7L469.31 176.7L469.31 183.21L448.47 183.21L448.47 176.7L453.47 176.7L453.47 154.44C 453.47 149.87 450.91 147.85 448.13 147.85C 443.32 147.85 439.84 153.2 439.84 157.3L439.84 157.3L439.84 176.67L445.02 176.67L445.02 183.18L424.85 183.18L424.85 176.67L430.18 176.67L430.18 154.44C 430.18 150.25 427.95 147.78 425.31 147.78C 418.8 147.78 415.78 156.99 415.78 164.35L415.78 164.35L415.78 176.67L421.06 176.67L421.06 183.18" stroke="none" fill="#FFFFFF" fill-rule="nonzero" />
	<g transform="matrix(1.568868 0 0 1.568868 0 108.8128)">
	</g>
    <path transform="matrix(1.568868 0 0 1.568868 0 108.8128)"  d="M476.74 131C 476.7198 128.3427 478.307 125.9365 480.7579 124.9093C 483.2087 123.882 486.0373 124.4374 487.9178 126.315C 489.7983 128.1926 490.358 131.0203 489.3345 133.4727C 488.3111 135.9251 485.9073 137.5161 483.25 137.5C 479.6676 137.4782 476.7673 134.5824 476.74 131L476.74 131L488.74 142.62L488.74 176.7L495.32 176.7L495.32 183.21L471.62 183.21L471.62 176.7L479.13 176.7L479.13 148.55L471.53 148.55L471.53 142.55L476.74 131z" stroke="none" fill="#FFFFFF" fill-rule="nonzero" />
	<g transform="matrix(1.568868 0 0 1.568868 0 108.8128)">
	</g>
    <path transform="matrix(1.568868 0 0 1.568868 0 108.8128)"  d="M514.78 125.7L514.78 176.67L522.23 176.67L522.23 183.18L497.28 183.18L497.28 176.67L505.1 176.67L505.1 131.89L497.43 131.89L497.43 125.7" stroke="none" fill="#FFFFFF" fill-rule="nonzero" />
	<g transform="matrix(1.568868 0 0 1.568868 0 108.8128)">
	</g>
    <path transform="matrix(1.568868 0 0 1.568868 0 108.8128)"  d="M522.14 192.24C 522.1661 190.6079 522.8452 189.0544 524.0254 187.9268C 525.2056 186.7992 526.7885 186.1916 528.42 186.24C 531.59 186.24 533.7601 188.17 533.7601 191.11C 533.6876 193.0782 532.9509 194.9639 531.67 196.46C 532.408 196.6272 533.1635 196.7044 533.92 196.69C 538.34 196.69 540.97 192.04 542.92 183.21L542.92 183.21L528.4401 148.58L521.4401 148.58L521.4401 142.58L545.6901 142.58L545.6901 148.58L539.8 148.58L548.9401 173.37L556.85 148.58L551.1801 148.58L551.1801 142.58L571.5601 142.58L571.5601 148.58L565.5601 148.58L552.85 183.36C 549.67 191.89 545.85 201.72 535.1901 201.96L535.1901 201.96L534.7201 201.96C 527.8301 201.96 522.1701 198.78 522.1701 192.27" stroke="none" fill="#FFFFFF" fill-rule="nonzero" />
	<g transform="matrix(1.568868 0 0 1.568868 0 108.8128)">
	</g>
    <path transform="matrix(1.568868 0 0 1.568868 0 108.8128)"  d="M319 252.23C 319.0438 249.2127 321.5024 246.7897 324.52 246.79C 325.7684 246.7056 326.9934 247.1591 327.8858 248.0362C 328.7782 248.9133 329.2528 250.1303 329.19 251.38C 328.9663 252.9545 328.1058 254.3681 326.81 255.29C 329.266 256.4949 331.9644 257.1242 334.7 257.13C 339.45 257.13 343.51 255.6 343.51 251.99C 343.51 247.17 337.77 246.56 332.09 244.57C 325.2 242.19 319.46 240.2 319.46 231.93C 319.46 223.66 329.03 220.66 334.7 220.66C 341.52 220.66 352.55 222.05 352.55 230.93C 352.5007 233.9283 350.0385 236.3234 347.04 236.29C 345.7915 236.3744 344.5666 235.9209 343.6742 235.0438C 342.7818 234.1666 342.3071 232.9497 342.37 231.7C 342.4802 230.0897 343.4406 228.6604 344.89 227.95C 342.584 226.4732 339.8872 225.7241 337.15 225.8C 332.63 225.8 328.5 226.87 328.5 230.32C 328.5 233.77 331.41 234.32 337.15 236.06C 344.15 238.21 352.94 240.27 352.94 250.16C 352.94 259.58 343.94 262.95 336.31 262.95C 328.31 262.95 319 260.57 319 252.23" stroke="none" fill="#FFFFFF" fill-rule="nonzero" />
	<g transform="matrix(1.568868 0 0 1.568868 0 108.8128)">
	</g>
    <path transform="matrix(1.568868 0 0 1.568868 0 108.8128)"  d="M369.13 236.58L387 236.58C 387 231.11 384.09 226.24 378.74 226.24C 373.39 226.24 369.84 231.11 369.16 236.58M358.75 241.8C 358.75 229.92 367.09 220.31 377.81 220.31C 388.23 220.31 396.51 227.83 396.73 240.95L396.73 240.95L368.82 240.95C 368.82 242.05 368.75 241.95 368.75 242.38C 368.75 248.38 371.89 255.58 380.08 255.38C 385.08 255.22 388.58 251.38 390.08 247.61L390.08 247.61L395.59 250.07C 393.53 258.57 386.4 262.87 378.73 262.87L378.73 262.87L378.52 262.87C 367.18 262.87 358.68 254.69 358.68 241.87" stroke="none" fill="#FFFFFF" fill-rule="nonzero" />
	<g transform="matrix(1.568868 0 0 1.568868 0 108.8128)">
	</g>
    <path transform="matrix(1.568868 0 0 1.568868 0 108.8128)"  d="M424.19 261.74L400.13 261.74L400.13 255.18L406.69 255.18L406.69 227.83L399 227.83L399 222.12L415.41 221.2L415.41 228.48C 417.376 224.0861 421.6787 221.2008 426.49 221.05C 430.25 220.9 434.41 222.51 434.41 228.05C 434.4888 229.7197 433.9008 231.3522 432.7754 232.5882C 431.6501 233.8242 430.0797 234.5623 428.41 234.64C 425.73 234.64 422.84 233.04 422.84 229.82C 422.84 227.75 423.39 227.13 423.77 226.82C 417.27 227.35 416.5 235.25 416.5 242.06L416.5 242.06L416.5 255.2L424.16 255.2" stroke="none" fill="#FFFFFF" fill-rule="nonzero" />
	<g transform="matrix(1.568868 0 0 1.568868 0 108.8128)">
	</g>
    <path transform="matrix(1.568868 0 0 1.568868 0 108.8128)"  d="M455.45 254.05L444.45 227.83L437.35 227.83L437.35 221.26L461.4 221.26L461.4 227.83L455.6 227.83L463.95 250.83L472.95 227.83L466.95 227.83L466.95 221.26L488.62 221.26L488.62 227.83L480.8 227.83L470.39 253.05C 467.25 260.94 465.79 262.78 462.57 262.78C 459.57 262.78 458.28 261.1 455.45 254.05" stroke="none" fill="#FFFFFF" fill-rule="nonzero" />
	<g transform="matrix(1.568868 0 0 1.568868 0 108.8128)">
	</g>
    <path transform="matrix(1.568868 0 0 1.568868 0 108.8128)"  d="M501.66 221.26L501.66 255.18L508.23 255.18L508.23 261.74L484.16 261.74L484.16 255.18L491.82 255.18L491.82 227.82L484.16 227.82L484.16 221.26" stroke="none" fill="#FFFFFF" fill-rule="nonzero" />
	<g transform="matrix(1.568868 0 0 1.568868 0 108.8128)">
	</g>
    <path transform="matrix(1.568868 0 0 1.568868 0 108.8128)"  d="M509.19 242.5C 509.19 230.55 516.63 220.5 530.03 220.5C 537.08 220.5 546.1201 223.87 546.1201 233.5C 545.9058 236.7514 543.1356 239.2374 539.8801 239.1C 536.8801 239.1 534.5001 237.48 534.5001 234.73L534.5001 234.73L534.5001 234.27C 534.5001 230.9 537.66 229.52 539.6501 229.52C 538.1201 227.07 535.3401 225.52 531.2801 225.52C 523.7801 225.52 519.5801 232.71 519.5801 240.29C 519.5801 249.1 523.3501 255.69 531.7001 255.69C 538.1301 255.69 541.05 250.1 542.2001 247.34L542.2001 247.34L547.11 249.17C 545.27 257.23 538.11 262.74 528.9501 262.74C 518.3901 262.74 509.1901 254.74 509.1901 242.44" stroke="none" fill="#FFFFFF" fill-rule="nonzero" />
	<g transform="matrix(1.568868 0 0 1.568868 0 108.8128)">
	</g>
    <path transform="matrix(1.568868 0 0 1.568868 0 108.8128)"  d="M561.66 236.58L579.5099 236.58C 579.5099 231.11 576.6 226.24 571.2399 226.24C 565.8799 226.24 562.3499 231.11 561.6599 236.58M551.2399 241.8C 551.2399 229.92 559.5899 220.31 570.3199 220.31C 580.7399 220.31 589.0099 227.83 589.2299 240.95L589.2299 240.95L561.36 240.95C 561.36 242.05 561.27 241.95 561.27 242.38C 561.27 248.38 564.42 255.58 572.6199 255.38C 577.6199 255.22 581.1199 251.38 582.6199 247.61L582.6199 247.61L588.1299 250.07C 586.0699 258.57 578.9399 262.87 571.28 262.87L571.28 262.87L571.05 262.87C 559.72 262.87 551.21 254.69 551.21 241.87" stroke="none" fill="#FFFFFF" fill-rule="nonzero" />
	<g transform="matrix(1.568868 0 0 1.568868 0 108.8128)">
	</g>
    <path transform="matrix(1.568868 0 0 1.568868 0 108.8128)"  d="M594.22 252.23C 594.2583 249.2143 596.7141 246.7897 599.73 246.79C 600.9775 246.7088 602.2005 247.1635 603.0922 248.0398C 603.9838 248.9162 604.4595 250.1312 604.4 251.38C 604.1765 252.9521 603.3203 254.3645 602.03 255.29C 604.4829 256.4934 607.1777 257.1227 609.91 257.13C 614.67 257.13 618.72 255.6 618.72 251.99C 618.72 247.17 612.98 246.56 607.31 244.57C 600.42 242.19 594.67 240.2 594.67 231.93C 594.67 223.66 604.24 220.66 609.91 220.66C 616.73 220.66 627.7599 222.05 627.7599 230.93C 627.7106 233.9283 625.2484 236.3234 622.2499 236.29C 621.0015 236.3744 619.7766 235.9209 618.8842 235.0437C 617.9918 234.1666 617.5171 232.9497 617.58 231.7C 617.7112 230.1095 618.668 228.7047 620.1 228C 617.7984 226.5217 615.1043 225.7724 612.37 225.85C 607.85 225.85 603.71 226.92 603.71 230.37C 603.71 233.82 606.62 234.37 612.37 236.11C 619.37 238.26 628.15 240.32 628.15 250.21C 628.15 259.63 619.15 263 611.52 263C 603.52 263 594.22 260.62 594.22 252.28" stroke="none" fill="#FFFFFF" fill-rule="nonzero" />
	<g transform="matrix(1.568868 0 0 1.568868 0 108.8128)">
	</g>
    <path transform="matrix(1.568868 0 0 1.568868 0 108.8128)"  d="M490.2 209.93C 490.216 206.3132 493.1236 203.3744 496.74 203.32C 499.0878 203.3192 501.2576 204.5712 502.4317 206.6043C 503.6058 208.6374 503.6058 211.1425 502.4317 213.1756C 501.2576 215.2087 499.0878 216.4608 496.74 216.46C 493.1388 216.4436 490.2219 213.5312 490.2 209.93" stroke="none" fill="#FFFFFF" fill-rule="nonzero" />
	<g transform="matrix(1.568868 0 0 1.568868 0 108.8128)">
	</g>
    <path transform="matrix(1.568868 0 0 1.568868 0 108.8128)"  d="M630.05 209.43C 630.9991 209.4309 631.9382 209.6248 632.81 210C 633.688 210.3589 634.4816 210.897 635.14 211.58C 635.7891 212.2537 636.2988 213.0489 636.64 213.92C 636.995 214.7931 637.175 215.7275 637.17 216.67C 637.1662 217.6037 636.9687 218.5265 636.59 219.38C 636.1877 220.2657 635.6249 221.0692 634.9301 221.75C 634.2858 222.3925 633.5166 222.8962 632.67 223.23C 631.7794 223.5684 630.8326 223.7346 629.8801 223.72C 628.9794 223.7174 628.0884 223.5338 627.2601 223.18C 623.6368 221.6616 621.9208 217.5013 623.42 213.87C 623.7842 212.9996 624.314 212.2083 624.98 211.54C 625.6456 210.8707 626.4376 210.3404 627.3101 209.98C 628.1771 209.6144 629.109 209.4273 630.05 209.43C 636.1982 215.7661 636.0351 214.9605 635.7201 214.21C 635.4134 213.4447 634.9579 212.7479 634.3801 212.16C 633.8077 211.5915 633.1278 211.1427 632.3801 210.84C 631.6403 210.5253 630.844 210.3653 630.04 210.37C 629.2205 210.3702 628.4087 210.5298 627.65 210.84C 626.8989 211.1546 626.2187 211.6171 625.65 212.2C 625.0793 212.7746 624.6243 213.4536 624.31 214.2C 624.0013 214.9518 623.8449 215.7573 623.85 216.57C 623.8439 218.2181 624.4996 219.7996 625.67 220.96C 626.2416 221.5394 626.921 222.0014 627.67 222.32C 629.1822 222.9401 630.8777 222.9401 632.39 222.32C 633.1412 222.0101 633.8216 221.5508 634.39 220.97C 634.9652 220.397 635.4236 219.7178 635.7399 218.97C 636.051 218.2221 636.2107 217.42 636.2099 216.61C 631.0756 212.446 631.8772 212.6333 632.5799 213.03C 633.1034 213.3032 633.4368 213.8396 633.4499 214.43C 633.4654 214.9533 633.2223 215.4507 632.7999 215.76C 632.1437 216.1639 631.4058 216.4167 630.6399 216.5C 631.1809 216.623 631.6848 216.8733 632.1099 217.23C 632.462 217.569 632.6997 218.0095 632.7899 218.49C 632.842 218.7105 632.8788 218.9344 632.8998 219.16C 632.9598 219.75 633.1298 220.06 633.4299 220.06C 633.6351 220.0549 633.8132 219.9172 633.8699 219.72C 633.988 219.4005 634.0391 219.0601 634.0199 218.72L634.0199 218.72L634.4999 218.72L634.4999 218.94C 634.5352 219.4102 634.3802 219.8749 634.0699 220.23C 633.7276 220.5418 633.2713 220.6975 632.8099 220.66C 632.5397 220.6694 632.2704 220.6217 632.0199 220.52C 631.8075 220.4323 631.6238 220.2867 631.4899 220.1C 631.3126 219.7572 631.2233 219.3758 631.2299 218.99C 631.2242 218.6785 631.1974 218.3678 631.1498 218.06C 631.0403 217.1678 630.2332 216.5301 629.3398 216.63L629.3398 216.63L629.1099 216.63L629.1099 219.06C 629.0807 219.3109 629.1609 219.5622 629.3298 219.75C 629.5756 219.9239 629.8688 220.0181 630.1699 220.02L630.1699 220.02L630.1699 220.48L626.3298 220.48L626.3298 220C 626.6382 220.0051 626.9412 219.918 627.1998 219.75C 627.3833 219.5578 627.4713 219.2938 627.4398 219.03L627.4398 219.03L627.4398 213.9C 627.4723 213.6409 627.3881 213.3808 627.2098 213.19C 626.9494 213.0177 626.642 212.9303 626.3298 212.94L626.3298 212.94L626.3298 212.46L630.05 209.43zM629.1099 213.63L629.1099 216.18L629.6299 216.18C 630.1758 216.2175 630.7174 216.0618 631.16 215.74C 631.5294 215.4379 631.7304 214.9762 631.7 214.5C 631.7189 214.0742 631.5508 213.6615 631.2399 213.37C 630.9141 213.07 630.4824 212.9117 630.0399 212.93C 629.7932 212.9117 629.5472 212.975 629.3399 213.11C 629.181 213.2249 629.0938 213.4145 629.1099 213.61" stroke="none" fill="#FFFFFF" fill-rule="nonzero" />
	<g transform="matrix(1.568868 0 0 1.568868 0 108.8128)">
	</g>
    <path transform="matrix(1.568868 0 0 1.568868 0 108.8128)"  d="M14.83 334C 13.22111 334.0307 11.61763 333.8045 10.08 333.33C 8.912654 332.9709 7.801728 332.4491 6.78 331.78L6.78 331.78L5.52 333.39L3.76 333.39L5.92 322.67L7.71 322.67C 7.768442 323.8805 7.942568 325.0826 8.23 326.26C 8.485736 327.333 8.936562 328.3499 9.559999 329.26C 10.16253 330.1704 10.98897 330.9108 11.96 331.41C 13.10067 331.9438 14.35126 332.2008 15.61 332.16C 17.53392 332.2558 19.42096 331.6077 20.88 330.35C 22.24609 329.0562 22.97698 327.229 22.88 325.35C 22.89272 324.2902 22.6012 323.2491 22.04 322.35C 21.43056 321.4279 20.55518 320.713 19.53 320.3C 18.48 319.85 17.43 319.44 16.4 319.08C 15.35662 318.7153 14.33497 318.2913 13.34 317.81C 12.04988 317.2044 10.94761 316.2611 10.15 315.08C 9.342286 313.9041 8.919499 312.5064 8.939998 311.08C 8.925596 309.7222 9.248596 308.3821 9.879997 307.18C 10.4923 305.9949 11.33551 304.9443 12.36 304.09C 13.43939 303.2097 14.66922 302.5321 15.99 302.09C 17.3441 301.6042 18.7714 301.3539 20.21 301.35C 21.46397 301.3432 22.71382 301.4944 23.93 301.8C 25.19635 302.1659 26.38567 302.7589 27.44 303.55L27.44 303.55L28.66 302.05L30.43 302.05L28.2 312.44L26.39 312.44C 26.3378 311.2649 26.22431 310.0933 26.05 308.93C 25.91389 307.8829 25.59576 306.8676 25.11 305.93C 24.6422 305.0904 23.94961 304.3978 23.11 303.93C 22.04205 303.3928 20.85432 303.1381 19.66 303.19C 18.04229 303.1794 16.48705 303.8139 15.33845 304.9531C 14.18985 306.0923 13.54262 307.6423 13.54 309.26C 13.51183 310.2242 13.73588 311.179 14.19 312.03C 14.6643 312.8217 15.3594 313.4577 16.19 313.86C 17.15524 314.3667 18.15824 314.798 19.19 315.15C 20.16101 315.4753 21.11255 315.8559 22.04 316.29C 23.56363 316.9489 24.92779 317.9277 26.04 319.16C 26.99492 320.3092 27.49958 321.7664 27.46 323.26C 27.4766 324.7753 27.1339 326.2728 26.46 327.63C 25.8153 328.9474 24.89037 330.1078 23.75 331.03C 22.55512 331.9958 21.20172 332.7469 19.75 333.25C 18.16468 333.7784 16.50075 334.032 14.83 334z" stroke="none" fill="#FBA919" fill-rule="nonzero" />
	<g transform="matrix(1.568868 0 0 1.568868 0 108.8128)">
	</g>
    <path transform="matrix(1.568868 0 0 1.568868 0 108.8128)"  d="M37.1 333.8C 36.00387 333.9177 34.90229 333.6334 34 333C 33.31534 332.3794 32.94781 331.4826 33 330.56C 32.99769 330.2257 33.01773 329.8916 33.06 329.56C 33.06 329.26 33.16 328.92 33.24 328.56L33.24 328.56L36.68 313.83L32.68 313.83L33.15 311.83L37.15 311.83L38.69 305.36L42.69 305.36L41.2 311.83L47.34 311.83L46.88 313.83L40.9 313.83L38.05 326C 37.92 326.56 37.8 327.1 37.72 327.62C 37.63965 328.0589 37.59616 328.5038 37.59 328.95C 37.53386 329.6009 37.75125 330.2458 38.18999 330.73C 38.83438 331.1701 39.61357 331.3685 40.39 331.29C 40.92997 331.2588 41.4676 331.1954 42 331.1C 42.54853 331.0356 43.08839 330.9116 43.61 330.73L43.61 330.73L43.24 332.35C 42.24 332.74 41.24 333.08 40.32 333.35C 39.27488 333.6587 38.1897 333.8103 37.1 333.8z" stroke="none" fill="#FBA919" fill-rule="nonzero" />
	<g transform="matrix(1.568868 0 0 1.568868 0 108.8128)">
	</g>
    <path transform="matrix(1.568868 0 0 1.568868 0 108.8128)"  d="M68.57 314.65C 68.56763 315.1052 68.51056 315.5584 68.4 316C 68.30254 316.4364 68.12997 316.8526 67.89 317.23C 67.66089 317.5862 67.36555 317.8951 67.02 318.14C 66.60712 318.3759 66.13473 318.487 65.66 318.46C 65.01162 318.5095 64.37049 318.297 63.88 317.87C 63.5072 317.5269 63.29051 317.0466 63.28 316.54C 63.29479 316.0141 63.40667 315.4953 63.61 315.01C 63.83 314.44 64.06 313.88 64.3 313.32C 64.00621 313.339 63.71489 313.3858 63.43 313.4601C 62.93615 313.5907 62.45699 313.7717 62 314C 61.29349 314.3531 60.62357 314.7752 60 315.26C 59.15709 315.9274 58.3802 316.6742 57.68 317.49L57.68 317.49L54.13 333.3L50 333.3L53.24 319C 53.31 318.64 53.42 318.11 53.56 317.41C 53.67601 316.8938 53.74628 316.3685 53.77 315.84C 53.83983 315.2538 53.69022 314.6625 53.35 314.18C 52.86005 313.8485 52.26775 313.7031 51.68 313.77C 51.26181 313.7743 50.8456 313.828 50.44 313.93C 49.94 314.04 49.56 314.13 49.27 314.21L49.27 314.21L49.61 312.79C 50.58043 312.3363 51.58318 311.9552 52.61 311.65C 53.34611 311.4217 54.10968 311.2939 54.88 311.27C 55.82792 311.1863 56.75928 311.5574 57.39 312.27C 57.95013 313.1213 58.21376 314.1336 58.14 315.15L58.14 315.15L58.28 315.15C 59.55341 314.0198 60.88883 312.9615 62.28 311.9799C 63.10926 311.3967 64.09622 311.0793 65.11 311.0699C 65.57294 311.0638 66.03435 311.1245 66.48 311.2499C 66.89964 311.3502 67.28789 311.5529 67.61 311.8399C 67.92474 312.1402 68.17041 312.5053 68.33 312.9099C 68.50659 313.4725 68.58772 314.0606 68.57 314.65z" stroke="none" fill="#FBA919" fill-rule="nonzero" />
	<g transform="matrix(1.568868 0 0 1.568868 0 108.8128)">
	</g>
    <path transform="matrix(1.568868 0 0 1.568868 0 108.8128)"  d="M92.06 319.73C 92.05632 321.5034 91.75896 323.2639 91.18 324.94C 90.63251 326.6155 89.76289 328.168 88.62 329.51C 87.49659 330.8676 86.10396 331.9777 84.53 332.77C 82.81125 333.6155 80.91508 334.0372 79 334C 76.75365 334.1011 74.5709 333.2389 73 331.63C 71.42168 329.9033 70.60057 327.6164 70.72 325.28C 70.71176 323.4072 71.05083 321.5492 71.72 319.8C 72.32919 318.1775 73.20823 316.6696 74.32 315.34C 75.45604 314.0368 76.84829 312.9815 78.41 312.24C 80.05653 311.4478 81.8629 311.0441 83.69 311.06C 85.98989 310.9374 88.23105 311.812 89.84 313.46C 91.36527 315.1829 92.1613 317.4312 92.06 319.73zM87.56 318.89C 87.67332 317.2472 87.28633 315.6086 86.45 314.19C 85.71809 313.1542 84.50665 312.5655 83.24 312.63C 82.00136 312.6345 80.7951 313.0261 79.79 313.75C 78.5497 314.703 77.58649 315.97 77 317.42C 76.37476 318.7793 75.93095 320.215 75.68 321.69C 75.4128 323.1215 75.27225 324.5738 75.26 326.03C 75.15069 327.6954 75.52949 329.3566 76.35 330.81C 77.08768 331.8938 78.34138 332.5092 79.65 332.43C 80.92029 332.4421 82.15359 332.0027 83.13 331.19C 84.17294 330.3405 85.01621 329.2719 85.60001 328.06C 86.26833 326.7124 86.75909 325.2838 87.06001 323.81C 87.39902 322.1921 87.56661 320.543 87.56 318.89z" stroke="none" fill="#FBA919" fill-rule="nonzero" />
	<g transform="matrix(1.568868 0 0 1.568868 0 108.8128)">
	</g>
    <path transform="matrix(1.568868 0 0 1.568868 0 108.8128)"  d="M120.24 330.78L119.91 332.19C 118.58 332.72 117.55 333.1 116.81 333.35C 116.0869 333.587 115.3309 333.7085 114.57 333.71C 113.5973 333.7838 112.6377 333.4506 111.92 332.79C 111.3302 332.1878 111.0092 331.3726 111.03 330.53C 111.033 330.1715 111.0631 329.8138 111.12 329.46C 111.18 329.0699 111.28 328.61 111.41 328.08L111.41 328.08L113.59 319.8499C 113.75 319.2099 113.88 318.64 113.98 318.1199C 114.0604 317.7111 114.1072 317.2964 114.12 316.8799C 114.1675 316.0452 113.9197 315.2203 113.42 314.55C 112.9013 313.951 112.1302 313.6323 111.34 313.69C 110.2833 313.7349 109.2535 314.0369 108.34 314.57C 107.1492 315.2253 106.0884 316.0929 105.21 317.13L105.21 317.13L101.44 333.34L97.32 333.34L100.63 319C 100.7 318.64 100.81 318.14 100.95 317.46C 101.073 316.9282 101.1433 316.3856 101.16 315.84C 101.2298 315.2538 101.0802 314.6625 100.74 314.18C 100.247 313.847 99.65099 313.7015 99.06 313.77C 98.6385 313.7743 98.21897 313.8279 97.81 313.93C 97.31 314.04 96.92 314.13 96.64 314.21L96.64 314.21L96.97 312.79C 97.96009 312.334 98.98294 311.953 100.03 311.65C 100.7697 311.4223 101.5365 311.2945 102.31 311.27C 103.2496 311.1739 104.1795 311.5258 104.82 312.22C 105.3693 312.9845 105.6505 313.9091 105.62 314.85L105.62 314.85L105.75 314.85C 107.0537 313.7661 108.4528 312.8022 109.93 311.97C 111.1633 311.3259 112.5389 311.0027 113.93 311.03C 115.138 310.9337 116.3279 311.369 117.1887 312.2221C 118.0494 313.0751 118.4954 314.2611 118.41 315.47C 118.41 315.73 118.37 316.2 118.29 316.88C 118.2098 317.5554 118.0794 318.2239 117.9 318.88L117.9 318.88L116.05 326C 115.91 326.4733 115.78 327.0133 115.66 327.62C 115.5546 328.0868 115.4911 328.562 115.47 329.04C 115.3964 329.6628 115.5971 330.2869 116.02 330.75C 116.5539 331.1037 117.192 331.2659 117.83 331.21C 118.2364 331.1949 118.6409 331.148 119.04 331.07C 119.4464 331.0022 119.8475 330.9053 120.24 330.78z" stroke="none" fill="#FBA919" fill-rule="nonzero" />
	<g transform="matrix(1.568868 0 0 1.568868 0 108.8128)">
	</g>
    <path transform="matrix(1.568868 0 0 1.568868 0 108.8128)"  d="M138.31 330.35L138.15 330.35L136.91 331.35C 135.7697 332.2221 134.5102 332.9259 133.17 333.44C 132.4339 333.6953 131.659 333.8206 130.88 333.81C 128.9622 333.9132 127.1158 333.0685 125.94 331.55C 124.6893 329.7222 124.0808 327.5309 124.21 325.32C 124.2071 323.4997 124.5463 321.695 125.21 320C 125.8521 318.3205 126.779 316.7644 127.95 315.4C 129.0675 314.1094 130.4262 313.0496 131.95 312.28C 133.4628 311.5029 135.1393 311.0984 136.84 311.1C 137.8543 311.0954 138.8641 311.2334 139.84 311.51C 140.6437 311.7332 141.4114 312.0699 142.12 312.51L142.12 312.51L146.12 311.51L146.39 311.84L142.68 329.23C 142.2364 331.5355 141.5144 333.7786 140.53 335.91C 139.8092 337.5251 138.7915 338.9904 137.53 340.23C 136.415 341.2738 135.0883 342.0651 133.64 342.55C 132.0809 343.0389 130.4537 343.2752 128.82 343.25C 127.812 343.2721 126.805 343.1747 125.82 342.96C 125.1722 342.8245 124.5551 342.5702 124 342.21C 123.6125 341.9672 123.3008 341.6208 123.1 341.21C 122.9559 340.8572 122.878 340.481 122.87 340.1C 122.8508 339.4904 123.0655 338.8965 123.47 338.44C 123.8828 337.9789 124.4818 337.729 125.1 337.76C 125.606 337.7472 126.0996 337.9177 126.49 338.24C 126.8497 338.5234 127.1634 338.8607 127.42 339.24C 127.6984 339.6754 127.9393 340.1338 128.14 340.61C 128.38 341.14 128.56 341.54 128.67 341.8L128.67 341.8L129.34 341.8C 130.2336 341.7827 131.1159 341.5961 131.94 341.25C 132.9075 340.8465 133.7745 340.2354 134.48 339.46C 135.3729 338.4313 136.1076 337.2752 136.66 336.03C 137.4586 334.2179 138.0135 332.3079 138.31 330.35zM141.25 316.25C 141.2449 315.82 141.181 315.3927 141.06 314.98C 140.9252 314.5272 140.6853 314.1126 140.36 313.77C 140.0183 313.4036 139.5977 313.1198 139.13 312.94C 138.5165 312.712 137.8641 312.6067 137.21 312.63C 136.0666 312.6313 134.9507 312.98 134.01 313.63C 132.9321 314.3883 132.0089 315.3454 131.29 316.45C 130.4767 317.7022 129.8595 319.0714 129.46 320.51C 128.9964 322.0679 128.7606 323.6846 128.76 325.31C 128.7534 326.1107 128.817 326.9105 128.95 327.7C 129.0522 328.3701 129.2723 329.0167 129.6 329.61C 129.8845 330.1358 130.3061 330.5746 130.82 330.88C 131.4334 331.209 132.1248 331.3646 132.82 331.33C 133.9059 331.3134 134.967 331.0024 135.89 330.4301C 136.9509 329.8026 137.9229 329.0358 138.78 328.1501z" stroke="none" fill="#FBA919" fill-rule="nonzero" />
	<g transform="matrix(1.568868 0 0 1.568868 0 108.8128)">
	</g>
    <path transform="matrix(1.568868 0 0 1.568868 0 108.8128)"  d="M170.4 315.65C 170.4245 317.1197 169.9004 318.5459 168.93 319.65C 167.7577 320.8897 166.2878 321.8088 164.66 322.32C 163.3098 322.8189 161.9264 323.2233 160.52 323.53C 158.9907 323.8672 157.4453 324.1275 155.89 324.31C 155.7678 326.1721 156.2142 328.0273 157.17 329.63C 158.0286 330.8603 159.4618 331.5599 160.96 331.48C 162.3366 331.5039 163.6897 331.1212 164.85 330.38C 166.137 329.4777 167.2599 328.3616 168.17 327.08L168.17 327.08L169.43 328.01C 168.3001 329.7579 166.7933 331.2306 165.02 332.32C 163.3708 333.3537 161.4663 333.9077 159.52 333.92C 157.3009 334.0799 155.1188 333.2871 153.52 331.74C 152.0505 330.0174 151.3114 327.7893 151.46 325.53C 151.4527 323.724 151.7467 321.9293 152.33 320.22C 152.9079 318.5468 153.7668 316.9845 154.87 315.6C 155.9599 314.2318 157.322 313.1047 158.87 312.29C 160.4821 311.4437 162.2792 311.0107 164.1 311.03C 165.7723 310.8982 167.4382 311.3545 168.81 312.32C 169.8315 313.1204 170.4198 314.3524 170.4 315.65zM166.34 315.11C 166.3604 314.6478 166.2785 314.1868 166.1 313.76C 165.9625 313.4628 165.7485 313.2074 165.48 313.02C 165.2275 312.8498 164.9408 312.7372 164.64 312.69C 164.3384 312.6494 164.0343 312.6294 163.73 312.63C 161.97 312.63 160.35 313.63 158.85 315.53C 157.2833 317.6517 156.3037 320.149 156.01 322.77C 157.01 322.62 158.2 322.42 159.5 322.14C 160.6144 321.9265 161.6967 321.5702 162.72 321.08C 163.8419 320.5404 164.7883 319.6945 165.45 318.64C 166.0643 317.567 166.3722 316.3459 166.34 315.11z" stroke="none" fill="#FBA919" fill-rule="nonzero" />
	<g transform="matrix(1.568868 0 0 1.568868 0 108.8128)">
	</g>
    <path transform="matrix(1.568868 0 0 1.568868 0 108.8128)"  d="M193.45 314.65C 193.4448 315.1089 193.3843 315.5655 193.27 316.01C 193.0912 316.8672 192.6037 317.6288 191.9 318.15C 190.8839 318.6655 189.6636 318.5609 188.75 317.88C 188.3828 317.5338 188.1702 317.0546 188.16 316.55C 188.1748 316.0241 188.2867 315.5053 188.49 315.02C 188.71 314.45 188.94 313.89 189.17 313.33C 188.8762 313.3489 188.5849 313.3958 188.3 313.47C 187.7952 313.6097 187.3059 313.8007 186.84 314.04C 186.1335 314.3932 185.4636 314.8152 184.84 315.3C 183.9948 315.9648 183.2177 316.7118 182.52 317.5301L182.52 317.5301L179 333.34L174.9 333.34L178.12 319C 178.19 318.64 178.3 318.11 178.44 317.41C 178.556 316.8939 178.6263 316.3685 178.65 315.84C 178.7198 315.2538 178.5702 314.6625 178.23 314.18C 177.737 313.847 177.141 313.7015 176.55 313.77C 176.1352 313.775 175.7224 313.8287 175.32 313.93C 174.82 314.04 174.43 314.13 174.15 314.21L174.15 314.21L174.48 312.79C 175.4668 312.3343 176.4863 311.9532 177.53 311.65C 178.2661 311.4217 179.0297 311.2939 179.8 311.27C 180.7479 311.1863 181.6793 311.5574 182.31 312.27C 182.8702 313.1213 183.1338 314.1336 183.06 315.15L183.06 315.15L183.19 315.15C 184.4632 314.0194 185.7986 312.9611 187.19 311.9799C 188.0193 311.3967 189.0063 311.0793 190.02 311.0699C 190.483 311.0638 190.9444 311.1245 191.39 311.2499C 191.8075 311.3481 192.193 311.5511 192.51 311.8399C 192.8286 312.1369 193.0749 312.5029 193.23 312.9099C 193.4053 313.4725 193.4798 314.0616 193.45 314.65z" stroke="none" fill="#FBA919" fill-rule="nonzero" />
	<g transform="matrix(1.568868 0 0 1.568868 0 108.8128)">
	</g>
    <path transform="matrix(1.568868 0 0 1.568868 0 108.8128)"  d="M198.81 330.8C 198.8201 331.5966 198.4976 332.3613 197.92 332.91C 197.3522 333.4679 196.586 333.7772 195.79 333.77C 194.9923 333.7863 194.2227 333.4756 193.66 332.91C 193.0793 332.3634 192.7561 331.5973 192.77 330.8C 192.77 329.1431 194.1131 327.8 195.77 327.8C 197.4268 327.8 198.77 329.1431 198.77 330.8L198.77 330.8L198.81 330.8z" stroke="none" fill="#FBA919" fill-rule="nonzero" />
	<g transform="matrix(1.568868 0 0 1.568868 0 108.8128)">
	</g>
    <path transform="matrix(1.568868 0 0 1.568868 0 108.8128)"  d="M459.23 302L457.16 311L455.46 311C 455.3783 310.3713 455.2648 309.7472 455.12 309.13C 454.9492 308.3685 454.7151 307.6225 454.42 306.9C 454.1613 306.2301 453.8257 305.5925 453.42 305C 453.127 304.544 452.6614 304.2264 452.13 304.12C 451.68 304.06 451.13 304.01 450.44 303.97C 449.75 303.93 449.17 303.9 448.66 303.9L448.66 303.9L447.56 303.9L441.94 328.23C 441.88 328.48 441.83 328.72 441.8 328.94C 441.7675 329.1049 441.7474 329.2721 441.74 329.44C 441.7324 329.7657 441.8044 330.0884 441.95 330.38C 442.127 330.6842 442.4073 330.9149 442.74 331.03C 443.2386 331.2214 443.7542 331.3654 444.28 331.46C 444.96 331.6 445.52 331.69 445.96 331.74L445.96 331.74L445.58 333.3499L428.13 333.3499L428.51 331.74C 428.92 331.74 429.51 331.65 430.32 331.56C 430.8955 331.5131 431.465 331.4093 432.02 331.25C 432.5391 331.0609 432.9959 330.7321 433.34 330.3C 433.6459 329.8813 433.8543 329.3995 433.95 328.89L433.95 328.89L439.73 303.89L438.88 303.89C 438.31 303.89 437.75 303.89 437.18 303.95C 436.61 304.0099 435.98 304.0399 435.26 304.11C 434.5888 304.252 433.9716 304.5815 433.48 305.06C 432.8092 305.6335 432.1716 306.2444 431.57 306.89C 430.9249 307.6046 430.3175 308.3523 429.75 309.1299C 429.28 309.8 428.87 310.42 428.53 310.9899L428.53 310.9899L426.83 310.9899L428.9 302L459.23 302z" stroke="none" fill="#FBA919" fill-rule="nonzero" />
	<g transform="matrix(1.568868 0 0 1.568868 0 108.8128)">
	</g>
    <path transform="matrix(1.568868 0 0 1.568868 0 108.8128)"  d="M481.17 320.12C 481.1732 321.9461 480.8129 323.7546 480.11 325.44C 479.421 327.0991 478.4001 328.5999 477.11 329.85C 475.6958 331.1996 474.0266 332.2534 472.2 332.95C 470.1783 333.6989 468.0358 334.0684 465.88 334.04C 463.1286 334.1693 460.4261 333.2791 458.29 331.54C 456.3441 329.817 455.2818 327.3064 455.4 324.71C 455.3857 322.8368 455.7603 320.981 456.5 319.26C 457.2066 317.6069 458.2446 316.1161 459.55 314.88C 460.9302 313.6042 462.5522 312.6181 464.32 311.98C 466.2727 311.2465 468.3441 310.8803 470.43 310.9C 473.255 310.7425 476.0421 311.6088 478.28 313.34C 480.2375 315.0333 481.304 317.5352 481.17 320.12zM473.4 317.63C 473.501 316.3076 473.1976 314.9859 472.53 313.84C 471.9527 313.0317 471.0018 312.5751 470.01 312.63C 468.8322 312.6483 467.7098 313.1339 466.89 313.98C 465.8205 315.113 465.0356 316.484 464.6 317.98C 464.0714 319.5146 463.7028 321.0997 463.5 322.71C 463.2933 324.2215 463.1831 325.7446 463.17 327.27C 463.0607 328.6197 463.3679 329.9704 464.05 331.14C 464.6496 331.9423 465.6099 332.3924 466.61 332.34C 467.822 332.3386 468.9699 331.7958 469.7401 330.86C 470.6664 329.7959 471.3793 328.5635 471.8401 327.23C 472.3775 325.7038 472.7693 324.1301 473.0101 322.53C 473.2634 320.9089 473.3937 319.2708 473.4 317.63z" stroke="none" fill="#FBA919" fill-rule="nonzero" />
	<g transform="matrix(1.568868 0 0 1.568868 0 108.8128)">
	</g>
    <path transform="matrix(1.568868 0 0 1.568868 0 108.8128)"  d="M499.05 331L498.88 331C 498.51 331.29 498.08 331.61 497.6 332C 497.1053 332.3419 496.5797 332.6365 496.03 332.88C 495.4178 333.1779 494.7823 333.4254 494.13 333.62C 493.405 333.8051 492.658 333.8892 491.91 333.87C 489.7073 334.0101 487.5518 333.1895 486 331.62C 484.5496 329.9024 483.8124 327.6944 483.94 325.45C 483.9292 323.5357 484.2892 321.6374 485 319.86C 485.6744 318.1616 486.6463 316.5971 487.87 315.24C 489.0557 313.9328 490.4904 312.8755 492.09 312.13C 493.6992 311.3667 495.459 310.9738 497.24 310.98C 498.4235 310.9619 499.6041 311.1031 500.75 311.4C 501.7081 311.6441 502.6042 312.0871 503.38 312.7L503.38 312.7L510.11 311.31L510.42 311.66L506.66 329.6C 506.1998 331.9227 505.3728 334.1573 504.21 336.22C 503.2811 337.8318 502.0443 339.2453 500.5699 340.38C 499.2496 341.3804 497.7489 342.1172 496.1499 342.55C 494.5701 342.9636 492.943 343.1687 491.3099 343.16C 489.8258 343.1904 488.3431 343.0529 486.8899 342.75C 485.9603 342.5612 485.0727 342.2054 484.2699 341.7C 483.7472 341.3631 483.331 340.8845 483.0699 340.32C 482.865 339.8496 482.7562 339.343 482.7499 338.83C 482.7507 337.9924 483.0728 337.1871 483.6499 336.58C 484.2862 335.8938 485.1955 335.5271 486.1299 335.58C 486.8853 335.5725 487.6249 335.7958 488.2499 336.22C 488.8762 336.645 489.4328 337.1645 489.8999 337.76C 490.3534 338.3524 490.7517 338.9851 491.0899 339.6501C 491.4599 340.36 491.7399 340.9401 491.9299 341.3801C 492.6132 341.2541 493.2829 341.0632 493.9299 340.8101C 494.6885 340.4746 495.3518 339.9557 495.8599 339.3C 496.5561 338.4117 497.1218 337.4284 497.5399 336.38C 498.226 334.6431 498.732 332.8403 499.05 331zM502.05 316.56C 502.0487 316.1752 501.9983 315.7921 501.9 315.42C 501.7977 315.0101 501.6065 314.6277 501.34 314.3C 501.0757 313.9391 500.734 313.6418 500.34 313.43C 499.8115 313.1981 499.2365 313.0919 498.66 313.12C 497.6843 313.119 496.7419 313.4746 496.01 314.12C 495.1295 314.8895 494.4033 315.8194 493.87 316.86C 493.2229 318.1261 492.7422 319.4706 492.44 320.86C 492.08 322.387 491.9022 323.9512 491.91 325.52C 491.9027 326.191 491.963 326.8611 492.09 327.52C 492.2099 328.0893 492.4337 328.6317 492.75 329.12C 493.0434 329.5782 493.459 329.9454 493.95 330.18C 494.4705 330.4186 495.0376 330.5382 495.61 330.53C 496.3955 330.5112 497.1619 330.2834 497.83 329.87C 498.5044 329.4945 499.118 329.0191 499.65 328.46z" stroke="none" fill="#FBA919" fill-rule="nonzero" />
	<g transform="matrix(1.568868 0 0 1.568868 0 108.8128)">
	</g>
    <path transform="matrix(1.568868 0 0 1.568868 0 108.8128)"  d="M523.08 334.07C 521.5001 334.1004 519.9268 333.8568 518.43 333.35C 517.2007 332.9311 516.0779 332.2485 515.14 331.35C 514.2827 330.507 513.6265 329.4816 513.22 328.35C 512.7795 327.1496 512.5626 325.8786 512.58 324.6C 512.5873 322.8682 512.9268 321.1539 513.58 319.55C 514.232 317.8981 515.2156 316.3972 516.47 315.14C 517.7783 313.8361 519.3406 312.815 521.0601 312.14C 523.0006 311.3424 525.0821 310.9445 527.1801 310.97C 529.2552 310.851 531.3251 311.2822 533.1801 312.22C 534.5177 312.9975 535.3117 314.4545 535.2401 316C 535.2535 317.5677 534.6033 319.0679 533.4501 320.13C 532.0765 321.3828 530.408 322.2669 528.6001 322.7C 527.2406 323.1133 525.8583 323.4472 524.4601 323.7C 523.3301 323.9 521.9301 324.09 520.2801 324.27C 520.3254 325.0049 520.4156 325.7362 520.5501 326.46C 520.6688 327.1783 520.8911 327.8756 521.2101 328.53C 521.5601 329.1812 522.078 329.7267 522.7101 330.11C 523.4684 330.526 524.326 330.7266 525.1901 330.69C 526.7212 330.7374 528.2391 330.3932 529.6 329.69C 530.968 328.8785 532.1529 327.7924 533.08 326.5L533.08 326.5L534.68 327.84C 533.3646 329.7242 531.6245 331.2726 529.6 332.36C 527.6065 333.4729 525.363 334.0613 523.08 334.07zM528.08 316.6C 528.1423 315.594 527.9058 314.5919 527.4 313.72C 526.9861 313.0763 526.265 312.6967 525.5 312.72C 524.37 312.72 523.3 313.65 522.29 315.49C 521.1855 317.671 520.5293 320.0511 520.36 322.49C 521.23 322.38 522.09 322.25 522.94 322.09C 523.6248 321.9655 524.2949 321.7711 524.94 321.51C 525.9027 321.1391 526.7319 320.4877 527.32 319.64C 527.851 318.7178 528.1077 317.6631 528.06 316.6z" stroke="none" fill="#FBA919" fill-rule="nonzero" />
	<g transform="matrix(1.568868 0 0 1.568868 0 108.8128)">
	</g>
    <path transform="matrix(1.568868 0 0 1.568868 0 108.8128)"  d="M545.74 333.91C 544.2196 333.9866 542.7201 333.5304 541.5 332.62C 540.4736 331.8457 539.882 330.6253 539.91 329.34C 539.9078 328.8243 539.9479 328.3092 540.03 327.8C 540.1 327.31 540.22 326.69 540.3799 325.93L540.3799 325.93L543.1099 314.19L539.1099 314.19L539.64 311.92L543.7599 311.92L545.35 305.24L552.49 305.24L550.95 311.92L556.95 311.92L556.42 314.19L550.42 314.19L547.72 325.93C 547.6299 326.34 547.52 326.83 547.43 327.43C 547.355 327.8063 547.3048 328.1871 547.28 328.57C 547.2066 329.2336 547.4692 329.8901 547.98 330.32C 548.6271 330.6866 549.3682 330.8536 550.11 330.8C 550.7443 330.7752 551.3743 330.6847 551.99 330.53C 552.5625 330.4214 553.1271 330.2744 553.68 330.09L553.68 330.09L553.19 332.09C 551.9348 332.6491 550.6332 333.0975 549.3 333.43C 548.1377 333.7362 546.942 333.8975 545.74 333.91z" stroke="none" fill="#FBA919" fill-rule="nonzero" />
	<g transform="matrix(1.568868 0 0 1.568868 0 108.8128)">
	</g>
    <path transform="matrix(1.568868 0 0 1.568868 0 108.8128)"  d="M586.65 330L586.16 331.94C 584.7 332.52 583.54 332.94 582.67 333.26C 581.702 333.5755 580.6881 333.7276 579.67 333.71C 578.191 333.7987 576.7322 333.3315 575.58 332.4C 574.6288 331.5866 574.0898 330.3914 574.11 329.14C 574.11 328.73 574.11 328.28 574.17 327.78C 574.2422 327.0844 574.3693 326.3956 574.55 325.72L574.55 325.72L576.1301 319.86C 576.29 319.23 576.4101 318.6501 576.4901 318.1501C 576.5614 317.737 576.6016 317.3192 576.61 316.9001C 576.6426 316.3084 576.4656 315.7242 576.11 315.2501C 575.6511 314.8098 575.0233 314.5908 574.3901 314.6501C 573.6469 314.7151 572.9216 314.915 572.2501 315.2401C 571.1014 315.7828 570.0532 316.5166 569.1501 317.4101L569.1501 317.4101L565.4901 333.3401L558.2001 333.3401L564.6901 305.2601C 564.7501 305.0268 564.7935 304.7895 564.8201 304.5501C 564.8486 304.368 564.8653 304.1843 564.8701 304.0001C 564.8913 303.5638 564.7983 303.1294 564.6001 302.7401C 564.4151 302.4187 564.1406 302.1581 563.8101 301.9901C 563.4285 301.792 563.016 301.6601 562.5901 301.6001C 562.1401 301.5201 561.5901 301.4501 561.0001 301.4001L561.0001 301.4001L561.4001 299.7701L573.0201 299.1901L573.2601 299.55L569.7301 314.8101L569.8801 314.8101C 571.155 313.6647 572.5901 312.7113 574.1401 311.9801C 575.6299 311.2991 577.2523 310.9576 578.8901 310.9801C 580.2942 310.8999 581.6724 311.3821 582.7202 312.3201C 583.6178 313.1687 584.1184 314.3549 584.1002 315.5901C 584.1002 315.9301 584.1002 316.4001 584.0201 317.0101C 583.9611 317.6699 583.8405 318.3227 583.6602 318.9601L583.6602 318.9601L581.9802 325.1601C 581.8164 325.7428 581.6829 326.3336 581.5801 326.9301C 581.4796 327.421 581.4194 327.9193 581.4001 328.4201C 581.3234 329.0649 581.5316 329.7112 581.9702 330.1901C 582.5602 330.5795 583.2668 330.7527 583.9702 330.6801C 584.478 330.6683 584.9821 330.591 585.4702 330.45C 585.8755 330.3338 586.2702 330.1832 586.65 330z" stroke="none" fill="#FBA919" fill-rule="nonzero" />
	<g transform="matrix(1.568868 0 0 1.568868 0 108.8128)">
	</g>
    <path transform="matrix(1.568868 0 0 1.568868 0 108.8128)"  d="M599 334.07C 597.42 334.0996 595.8469 333.856 594.35 333.35C 593.1207 332.9311 591.9978 332.2485 591.06 331.35C 590.2043 330.5038 589.5453 329.4795 589.13 328.35C 588.7023 327.1465 588.4891 325.8772 588.5 324.6C 588.5073 322.8682 588.8467 321.1539 589.5 319.55C 590.1562 317.9003 591.1392 316.4002 592.39 315.14C 593.6984 313.8361 595.2607 312.815 596.98 312.14C 598.9238 311.3414 601.0088 310.9434 603.11 310.97C 605.1853 310.85 607.2554 311.2813 609.11 312.22C 610.4476 312.9975 611.2416 314.4545 611.17 316C 611.1823 317.5654 610.5364 319.064 609.39 320.13C 608.0136 321.3842 606.3414 322.2685 604.53 322.7C 603.1735 323.112 601.7947 323.4458 600.4 323.7C 599.25 323.9 597.86 324.09 596.21 324.27C 596.2554 325.0049 596.3455 325.7362 596.48 326.46C 596.6017 327.1789 596.8274 327.8762 597.15 328.53C 597.4915 329.184 598.0071 329.7308 598.64 330.11C 599.3951 330.5247 600.2492 330.7252 601.11 330.69C 602.6445 330.7391 604.166 330.3949 605.53 329.69C 606.9 328.8813 608.0855 327.7947 609.0099 326.5L609.0099 326.5L610.6199 327.84C 609.2981 329.7221 607.5552 331.2699 605.5299 332.36C 603.5341 333.4758 601.2866 334.0643 599 334.07zM604 316.6C 604.0624 315.594 603.8258 314.5919 603.32 313.72C 602.9061 313.0763 602.1849 312.6967 601.42 312.72C 600.29 312.72 599.22 313.65 598.21 315.49C 597.1056 317.671 596.4493 320.0511 596.28 322.49C 597.15 322.38 598.0099 322.25 598.86 322.09C 599.5447 321.9655 600.2149 321.7711 600.86 321.51C 601.8239 321.1366 602.6556 320.4859 603.25 319.64C 603.7799 318.7169 604.0398 317.6636 604 316.6z" stroke="none" fill="#FBA919" fill-rule="nonzero" />
	<g transform="matrix(1.568868 0 0 1.568868 0 108.8128)">
	</g>
    <path transform="matrix(1.568868 0 0 1.568868 0 108.8128)"  d="M638.14 315.54C 638.1405 316.1877 638.0428 316.8317 637.85 317.45C 637.6756 318.0365 637.3829 318.581 636.9901 319.05C 636.6144 319.4982 636.1603 319.8744 635.65 320.16C 635.0201 320.4327 634.3356 320.5559 633.65 320.52C 632.7139 320.5739 631.79 320.2861 631.05 319.71C 630.478 319.272 630.1329 318.6002 630.11 317.88C 630.0917 317.3209 630.1835 316.7637 630.3801 316.24C 630.5601 315.79 630.85 315.09 631.2501 314.17C 630.329 314.5361 629.4718 315.0458 628.7101 315.68C 627.9698 316.2857 627.2839 316.955 626.6601 317.68L626.6601 317.68L623.1801 333.3L615.9001 333.3L618.9001 319.73C 618.9901 319.32 619.1101 318.78 619.2401 318.12C 619.3705 317.5794 619.441 317.026 619.4501 316.47C 619.5276 315.8477 619.351 315.2204 618.9601 314.73C 618.399 314.3524 617.7224 314.1859 617.0502 314.26C 616.5619 314.2604 616.0764 314.3346 615.6102 314.48C 615.1102 314.62 614.6902 314.77 614.3401 314.9L614.3401 314.9L614.8201 312.9C 616.0101 312.41 617.1501 312 618.2301 311.65C 619.2269 311.3171 620.2694 311.1417 621.3201 311.13C 622.6921 311.0186 624.0619 311.3707 625.2101 312.13C 626.0923 312.8623 626.6961 313.8756 626.9202 315L626.9202 315L627.0702 315C 628.1604 313.7688 629.4078 312.6862 630.7802 311.78C 631.7629 311.1739 632.8957 310.8552 634.0502 310.86C 635.1756 310.7901 636.2741 311.2222 637.0502 312.04C 637.8545 313.0207 638.2454 314.276 638.14 315.54z" stroke="none" fill="#FBA919" fill-rule="nonzero" />
	<g transform="matrix(1.568868 0 0 1.568868 0 108.8128)">
	</g>
    <path transform="matrix(1.568868 0 0 1.568868 0 108.8128)"  d="M646.89 329.67C 646.8904 330.8047 646.4239 331.8897 645.6 332.67C 644.8003 333.4932 643.6978 333.9522 642.55 333.94C 641.395 333.955 640.2834 333.5002 639.47 332.68C 638.6452 331.9004 638.1785 330.815 638.1801 329.68C 638.2913 327.3558 640.2081 325.5285 642.535 325.5285C 644.8619 325.5285 646.7787 327.3558 646.8901 329.68L646.8901 329.68L646.89 329.67z" stroke="none" fill="#FBA919" fill-rule="nonzero" />
	<g transform="matrix(1.568868 0 0 1.568868 0 108.8128)">
	</g>
    <path transform="matrix(1.568868 0 0 1.568868 0 108.8128)"  d="M251.1 331.85L250.74 333.3L242.84 333.3C 241.59 330.3 240.41 327.8 239.3 325.7C 238.19 323.6 237.01 321.38 235.78 319.08L235.78 319.08L232.52 319.08L230.19 329.16C 230.1548 329.2982 230.1281 329.4385 230.11 329.58C 230.1036 329.6999 230.1036 329.8201 230.11 329.94C 230.1025 330.2432 230.1641 330.5441 230.29 330.82C 230.4406 331.0864 230.6766 331.2943 230.96 331.41C 231.3894 331.5478 231.8317 331.6416 232.28 331.69C 232.8301 331.7727 233.3842 331.8261 233.94 331.85L233.94 331.85L233.59 333.3L220.33 333.3L220.68 331.85L222.25 331.7C 222.7432 331.6614 223.2299 331.5641 223.7 331.41C 224.1816 331.2378 224.6022 330.9284 224.91 330.52C 225.1956 330.1166 225.3901 329.656 225.48 329.17L225.48 329.17L230.76 306.35C 230.76 306.2 230.81 306.05 230.84 305.9C 230.8496 305.7501 230.8496 305.5998 230.84 305.45C 230.8455 305.1663 230.7838 304.8853 230.66 304.6299C 230.51 304.376 230.2768 304.1818 230 304.08C 229.5621 303.9319 229.1144 303.815 228.66 303.7299C 228.1815 303.6279 227.6973 303.5544 227.21 303.5099L227.21 303.5099L227.54 302.0599L241.59 302.0599C 242.7539 302.0469 243.9153 302.1711 245.05 302.4299C 245.9713 302.6209 246.8559 302.9585 247.67 303.4299C 249.2843 304.3701 250.2493 306.1231 250.18 307.9899C 250.1982 309.2874 249.9355 310.5735 249.41 311.7599C 248.9212 312.8664 248.2098 313.8604 247.32 314.6799C 246.3781 315.5244 245.3166 316.2253 244.17 316.7599C 242.927 317.3335 241.6263 317.7727 240.29 318.0699C 241.4434 320.2899 242.3767 322.0432 243.09 323.3299C 243.81 324.6199 244.65 326.2199 245.62 328.1099C 245.9796 328.8518 246.4334 329.5441 246.97 330.1699C 247.3329 330.5654 247.7545 330.9027 248.22 331.1699C 248.6713 331.4037 249.1577 331.5625 249.66 331.6399C 250.1346 331.7431 250.6158 331.8133 251.1 331.85zM244.8 308.49C 244.8759 307.1773 244.3713 305.8976 243.42 304.99C 242.3371 304.0933 240.9533 303.6428 239.55 303.73L239.55 303.73L236 303.73L233 317.3L236.13 317.3C 238.4609 317.3083 240.6974 316.3798 242.3371 314.7232C 243.9768 313.0666 244.8822 310.8206 244.85 308.49z" stroke="none" fill="#FBA919" fill-rule="nonzero" />
	<g transform="matrix(1.568868 0 0 1.568868 0 108.8128)">
	</g>
    <path transform="matrix(1.568868 0 0 1.568868 0 108.8128)"  d="M273 315.65C 273.0244 317.118 272.5043 318.5429 271.54 319.65C 270.3666 320.886 268.8968 321.8017 267.27 322.31C 265.9219 322.8076 264.5422 323.2152 263.14 323.53C 261.74 323.84 260.2 324.09 258.51 324.3C 258.3922 326.163 258.842 328.0179 259.8 329.62C 260.659 330.8434 262.0872 331.5386 263.58 331.46C 264.9553 331.4868 266.307 331.1001 267.46 330.35C 268.747 329.4596 269.8702 328.3533 270.78 327.08L270.78 327.08L272 328C 270.8757 329.7437 269.3715 331.2103 267.6 332.29C 265.9579 333.3323 264.055 333.8904 262.11 333.9C 259.8901 334.0664 257.7054 333.2726 256.11 331.72C 254.6465 330.002 253.9078 327.7824 254.05 325.53C 254.042 323.7239 254.336 321.9291 254.92 320.22C 255.4958 318.549 256.3551 316.9895 257.46 315.61C 258.5491 314.241 259.9113 313.1137 261.46 312.3C 263.0722 311.4536 264.8693 311.0207 266.69 311.04C 268.3608 310.9075 270.0249 311.3677 271.39 312.34C 272.4209 313.1259 273.0182 314.3539 273 315.65zM269 315.11C 269.0204 314.6478 268.9385 314.1868 268.76 313.76C 268.6259 313.4606 268.4113 313.2044 268.14 313.02C 267.8853 312.8541 267.5995 312.7419 267.3 312.69C 267.0018 312.6494 266.701 312.6294 266.4 312.63C 264.64 312.63 263.01 313.63 261.52 315.53C 259.956 317.6485 258.9797 320.1427 258.69 322.76C 259.7167 322.6133 260.8767 322.4034 262.17 322.13C 263.2874 321.9228 264.3709 321.5628 265.39 321.06C 266.5085 320.5239 267.4518 319.6812 268.11 318.63C 268.6927 317.5516 268.9694 316.3344 268.91 315.11z" stroke="none" fill="#FBA919" fill-rule="nonzero" />
	<g transform="matrix(1.568868 0 0 1.568868 0 108.8128)">
	</g>
    <path transform="matrix(1.568868 0 0 1.568868 0 108.8128)"  d="M281.81 334C 279.9324 334.063 278.068 333.6647 276.38 332.84C 275.1366 332.3467 274.2934 331.1757 274.22 329.84C 274.2267 329.2325 274.4502 328.6474 274.85 328.19C 275.2275 327.706 275.8062 327.4221 276.42 327.42C 276.9261 327.3921 277.4267 327.5366 277.84 327.83C 278.1898 328.1006 278.4793 328.4412 278.69 328.83C 278.9312 329.265 279.1256 329.7242 279.27 330.2C 279.44 330.73 279.58 331.2 279.7 331.5C 279.9601 331.782 280.2682 332.0157 280.61 332.19C 281.1395 332.4309 281.7191 332.5407 282.3 332.51C 283.6097 332.6013 284.9028 332.1739 285.9 331.32C 286.7375 330.4635 287.1796 329.2964 287.12 328.1C 287.1521 327.1624 286.7271 326.2675 285.98 325.7C 284.9355 324.9733 283.7807 324.4195 282.56 324.06C 281.906 323.8328 281.2679 323.5622 280.65 323.25C 280.0057 322.9534 279.4091 322.5624 278.88 322.09C 278.3538 321.6197 277.9227 321.0528 277.61 320.42C 277.2661 319.7032 277.0982 318.9147 277.12 318.12C 277.1451 316.1873 278.0787 314.3794 279.64 313.24C 281.3947 311.8345 283.5929 311.1005 285.84 311.17C 286.42 311.17 287.03 311.17 287.69 311.26C 288.4335 311.3364 289.1653 311.5009 289.87 311.75C 290.5234 311.9491 291.1245 312.2906 291.63 312.75C 292.1194 313.2181 292.385 313.8732 292.36 314.55C 292.3602 315.1504 292.1476 315.7314 291.76 316.19C 291.368 316.6674 290.7775 316.9368 290.16 316.92C 289.6852 316.9408 289.215 316.8188 288.81 316.57C 288.4492 316.3264 288.151 316.0008 287.94 315.62C 287.6987 315.2202 287.5041 314.7941 287.36 314.35C 287.22 313.89 287.05 313.45 286.88 313.01C 286.6381 312.9042 286.3871 312.8205 286.13 312.76C 285.839 312.7146 285.5446 312.6945 285.25 312.7C 284.0453 312.6089 282.8581 313.0301 281.98 313.86C 281.2548 314.5898 280.8546 315.5812 280.8701 316.61C 280.8074 317.4998 281.1802 318.3646 281.8701 318.93C 282.8871 319.6309 284.0026 320.1769 285.1801 320.55C 286.7927 321.0465 288.2773 321.8895 289.5301 323.02C 290.4331 323.9376 290.9241 325.183 290.89 326.47C 290.9391 328.595 289.9829 330.6186 288.3101 331.93C 286.453 333.3605 284.1523 334.0932 281.81 334z" stroke="none" fill="#FBA919" fill-rule="nonzero" />
	<g transform="matrix(1.568868 0 0 1.568868 0 108.8128)">
	</g>
    <path transform="matrix(1.568868 0 0 1.568868 0 108.8128)"  d="M305.42 330.91L305.09 332.31C 304.0333 332.7531 302.9514 333.1338 301.85 333.45C 301.176 333.6422 300.4807 333.7497 299.78 333.77C 298.8106 333.8422 297.8546 333.509 297.14 332.85C 296.5539 332.2462 296.2365 331.4312 296.26 330.59C 296.2637 330.2548 296.2938 329.9205 296.35 329.59C 296.35 329.22 296.5 328.76 296.63 328.19L296.63 328.19L298.96 318.83C 299.08 318.31 299.19 317.76 299.3 317.17C 299.4016 316.6795 299.4585 316.1808 299.47 315.68C 299.5393 315.0984 299.3934 314.5116 299.06 314.03C 298.5746 313.6967 297.9847 313.5511 297.4 313.62C 296.9659 313.6317 296.5338 313.6853 296.11 313.78C 295.58 313.88 295.17 313.97 294.89 314.04L294.89 314.04L295.22 312.63C 296.2206 312.1747 297.2534 311.7937 298.31 311.49C 299.0076 311.2725 299.73 311.1448 300.46 311.11C 301.4146 311.0225 302.3629 311.3337 303.08 311.97C 303.6468 312.606 303.9413 313.4391 303.9 314.29C 303.892 314.6515 303.8619 315.0122 303.81 315.37C 303.7489 315.8286 303.6588 316.2828 303.54 316.73L303.54 316.73L301.21 326.1C 301.06 326.68 300.93 327.24 300.82 327.79C 300.7236 328.2338 300.6701 328.6859 300.66 329.14C 300.5802 329.7712 300.7854 330.4052 301.22 330.87C 301.7552 331.2208 302.3922 331.3827 303.03 331.33C 303.4285 331.3176 303.8259 331.2809 304.22 331.22C 304.6294 331.1573 305.0315 331.0534 305.42 330.91zM307 302.74C 307.0125 303.5455 306.7236 304.3265 306.19 304.93C 305.6954 305.524 304.963 305.8683 304.19 305.87C 303.4449 305.8686 302.7371 305.5439 302.25 304.98C 301.7413 304.4368 301.4526 303.724 301.44 302.98C 301.4313 302.1961 301.7209 301.4383 302.25 300.86C 302.7327 300.2891 303.4424 299.9598 304.19 299.96C 304.9645 299.9312 305.7131 300.2415 306.24 300.81C 306.732 301.3318 307.0041 302.0229 307 302.74z" stroke="none" fill="#FBA919" fill-rule="nonzero" />
	<g transform="matrix(1.568868 0 0 1.568868 0 108.8128)">
	</g>
    <path transform="matrix(1.568868 0 0 1.568868 0 108.8128)"  d="M319.93 299.55L313.77 326.06C 313.64 326.62 313.52 327.17 313.4 327.73C 313.294 328.1795 313.2337 328.6385 313.22 329.1C 313.1461 329.7277 313.3507 330.3562 313.78 330.82C 314.3198 331.1688 314.9593 331.3304 315.6 331.28C 316.035 331.2669 316.469 331.2302 316.9 331.17C 317.3441 331.1267 317.783 331.0396 318.21 330.91L318.21 330.91L317.88 332.31C 316.56 332.84 315.55 333.22 314.83 333.44C 314.0478 333.6703 313.2354 333.7816 312.42 333.77C 311.4419 333.8398 310.4775 333.5075 309.75 332.85C 309.1443 332.2561 308.8112 331.438 308.83 330.59C 308.8372 330.2545 308.8706 329.9202 308.93 329.59C 309 329.22 309.09 328.76 309.21 328.2L309.21 328.2L314.58 304.9999C 314.68 304.5399 314.75 304.2299 314.78 304.0499C 314.824 303.8294 314.8441 303.6047 314.84 303.3799C 314.8633 302.9562 314.7699 302.5342 314.57 302.1599C 314.3897 301.8739 314.1288 301.6477 313.82 301.5099C 313.4457 301.3635 313.0511 301.2758 312.65 301.2499L312.65 301.2499L311.21 301.0899L311.52 299.7499L319.71 299.2699L319.93 299.55z" stroke="none" fill="#FBA919" fill-rule="nonzero" />
	<g transform="matrix(1.568868 0 0 1.568868 0 108.8128)">
	</g>
    <path transform="matrix(1.568868 0 0 1.568868 0 108.8128)"  d="M331.69 330.91L331.36 332.31C 330.3033 332.7531 329.2214 333.1338 328.12 333.45C 327.446 333.6422 326.7506 333.7497 326.05 333.77C 325.0806 333.8422 324.1246 333.509 323.41 332.85C 322.8239 332.2462 322.5065 331.4312 322.53 330.59C 322.5337 330.2548 322.5638 329.9205 322.62 329.59C 322.68 329.22 322.77 328.76 322.9 328.19L322.9 328.19L325.23 318.83C 325.35 318.31 325.46 317.76 325.57 317.17C 325.6716 316.6795 325.7285 316.1808 325.74 315.68C 325.8092 315.0984 325.6634 314.5116 325.33 314.03C 324.8446 313.6967 324.2547 313.5511 323.67 313.62C 323.2391 313.6313 322.8104 313.6849 322.39 313.78C 321.85 313.88 321.44 313.97 321.17 314.04L321.17 314.04L321.49 312.63C 322.4879 312.1765 323.5172 311.7955 324.57 311.49C 325.2715 311.2747 325.9971 311.147 326.73 311.11C 327.6846 311.0225 328.6329 311.3337 329.35 311.97C 329.9206 312.6037 330.2157 313.4384 330.17 314.29C 330.162 314.6515 330.1319 315.0122 330.08 315.37C 330.019 315.8286 329.9288 316.2828 329.81 316.73L329.81 316.73L327.48 326.1C 327.33 326.68 327.2 327.24 327.09 327.79C 326.9937 328.2338 326.9401 328.6859 326.93 329.14C 326.8502 329.7712 327.0554 330.4052 327.49 330.87C 328.0252 331.2208 328.6623 331.3827 329.3 331.33C 329.6985 331.3176 330.0959 331.2809 330.49 331.22C 330.8994 331.1573 331.3015 331.0534 331.69 330.91zM333.25 302.74C 333.2625 303.5455 332.9736 304.3265 332.44 304.93C 331.9454 305.524 331.213 305.8683 330.44 305.87C 329.6949 305.8686 328.9871 305.5439 328.5 304.98C 327.9913 304.4368 327.7026 303.724 327.69 302.98C 327.6813 302.1961 327.9709 301.4383 328.5 300.86C 328.9827 300.2891 329.6924 299.9598 330.44 299.96C 331.1973 299.9457 331.9247 300.2549 332.44 300.81C 332.9502 301.3238 333.2407 302.0159 333.25 302.74z" stroke="none" fill="#FBA919" fill-rule="nonzero" />
	<g transform="matrix(1.568868 0 0 1.568868 0 108.8128)">
	</g>
    <path transform="matrix(1.568868 0 0 1.568868 0 108.8128)"  d="M353.36 315.65C 353.3855 317.1199 352.8612 318.5464 351.89 319.65C 350.7222 320.8881 349.255 321.8042 347.63 322.31C 346.2789 322.809 344.8958 323.2166 343.49 323.53C 342.0999 323.84 340.56 324.09 338.87 324.3C 338.7521 326.163 339.2019 328.0179 340.16 329.62C 341.0145 330.8433 342.4399 331.5389 343.93 331.46C 345.3084 331.4869 346.6633 331.1003 347.82 330.35C 349.1058 329.4617 350.2261 328.355 351.13 327.08L351.13 327.08L352.39 328C 351.2621 329.7441 349.7545 331.2107 347.98 332.29C 346.3414 333.3321 344.4418 333.8901 342.5 333.9C 340.2968 334.0532 338.1327 333.2603 336.55 331.72C 335.0817 330.0046 334.3424 327.7831 334.49 325.53C 334.4785 323.7245 334.7692 321.9297 335.3499 320.22C 335.9294 318.5486 336.7919 316.9892 337.8999 315.61C 338.9867 314.2387 340.3495 313.111 341.8999 312.3C 343.5121 311.4537 345.3092 311.0207 347.1299 311.04C 348.8007 310.9075 350.4648 311.3678 351.83 312.34C 352.8308 313.1423 353.3972 314.3678 353.36 315.65zM349.31 315.11C 349.3322 314.6467 349.2466 314.1846 349.06 313.76C 348.9295 313.4613 348.7183 313.205 348.45 313.02C 348.1946 312.8556 347.9091 312.7434 347.61 312.69C 347.3118 312.6494 347.011 312.6294 346.71 312.63C 344.95 312.63 343.32 313.63 341.83 315.53C 340.266 317.6485 339.2897 320.1427 339 322.76C 340.0267 322.6133 341.1867 322.4034 342.48 322.13C 343.5942 321.923 344.6745 321.563 345.69 321.06C 346.8112 320.524 347.7578 319.6815 348.42 318.63C 349.0341 317.5605 349.3419 316.3428 349.31 315.11z" stroke="none" fill="#FBA919" fill-rule="nonzero" />
	<g transform="matrix(1.568868 0 0 1.568868 0 108.8128)">
	</g>
    <path transform="matrix(1.568868 0 0 1.568868 0 108.8128)"  d="M379.54 330.75L379.21 332.16C 377.88 332.69 376.85 333.07 376.11 333.31C 375.3922 333.5558 374.6387 333.6808 373.88 333.68C 372.9067 333.7587 371.9451 333.4248 371.23 332.76C 370.6435 332.1605 370.3258 331.3483 370.35 330.51C 370.3526 330.1482 370.3827 329.7872 370.44 329.43C 370.5085 328.9678 370.6053 328.5103 370.73 328.06L370.73 328.06L372.9 319.84C 373.06 319.2 373.19 318.63 373.29 318.11C 373.3703 317.7045 373.4172 317.2932 373.4301 316.88C 373.4774 316.0421 373.2297 315.2142 372.73 314.54C 372.2085 313.945 371.4395 313.627 370.6501 313.68C 369.5939 313.7284 368.565 314.0303 367.6501 314.56C 366.4602 315.2166 365.4024 316.088 364.5301 317.13L364.5301 317.13L360.7601 333.3L356.6501 333.3L360 319C 360.08 318.65 360.18 318.13 360.32 317.47C 360.443 316.9382 360.5133 316.3956 360.53 315.85C 360.5999 315.2638 360.4502 314.6725 360.11 314.19C 359.6206 313.8484 359.0226 313.6989 358.43 313.77C 358.0119 313.7841 357.5964 313.841 357.19 313.94L357.19 313.94L356.02 314.21L356.35 312.8C 357.3419 312.3484 358.3644 311.9674 359.41 311.66C 360.1494 311.4309 360.9163 311.3031 361.69 311.28C 362.6262 311.1871 363.5517 311.5388 364.19 312.23C 364.7317 312.9977 365.009 313.9208 364.98 314.86L364.98 314.86L365.12 314.86C 366.4131 313.7713 367.8059 312.807 369.28 311.98C 370.5155 311.3419 371.8896 311.019 373.28 311.04C 374.4862 310.9402 375.6757 311.3734 376.5354 312.2253C 377.3951 313.0773 377.8389 314.2629 377.75 315.47C 377.75 315.74 377.75 316.21 377.63 316.89C 377.5478 317.5643 377.4209 318.2325 377.25 318.89L377.25 318.89L375.35 326C 375.22 326.47 375.09 327 374.97 327.62C 374.8597 328.0859 374.7961 328.5616 374.78 329.04C 374.7064 329.6628 374.9071 330.2869 375.33 330.75C 375.8667 331.0966 376.5034 331.2549 377.14 331.2C 377.543 331.1848 377.9443 331.1379 378.34 331.06C 378.7469 330.9857 379.148 330.8821 379.54 330.75z" stroke="none" fill="#FBA919" fill-rule="nonzero" />
	<g transform="matrix(1.568868 0 0 1.568868 0 108.8128)">
	</g>
    <path transform="matrix(1.568868 0 0 1.568868 0 108.8128)"  d="M387.51 333.77C 386.4216 333.8571 385.3375 333.556 384.45 332.92C 383.7682 332.3016 383.4009 331.4092 383.45 330.49C 383.4448 330.1553 383.4682 329.8207 383.52 329.49C 383.52 329.19 383.62 328.84 383.7 328.49L383.7 328.49L387.13 313.78L383.19 313.78L383.65 311.78L387.65 311.78L389.19 305.33L393.19 305.33L391.7 311.78L397.83 311.78L397.37 313.78L391.3 313.78L388.46 325.92C 388.32 326.48 388.22 327.01 388.13 327.54C 388.0463 327.9787 387.9995 328.4236 387.99 328.87C 387.9369 329.5193 388.1581 330.1613 388.6 330.64C 389.2406 331.0803 390.0167 331.2787 390.79 331.2C 391.329 331.1857 391.8666 331.139 392.4 331.06C 392.9472 330.9933 393.4865 330.8727 394.0099 330.7L394.0099 330.7L393.6299 332.3C 392.6299 332.7 391.6299 333.04 390.7299 333.3C 389.6859 333.6154 388.6007 333.7738 387.51 333.77z" stroke="none" fill="#FBA919" fill-rule="nonzero" />
	<g transform="matrix(1.568868 0 0 1.568868 0 108.8128)">
	</g>
    <path transform="matrix(1.568868 0 0 1.568868 0 108.8128)"  d="M405.31 330.77C 405.321 331.5659 404.9939 332.3291 404.41 332.87C 403.8524 333.4395 403.0869 333.7572 402.29 333.75C 401.4911 333.752 400.7245 333.4352 400.16 332.87C 399.5829 332.3251 399.2602 331.5636 399.27 330.77C 399.27 329.1131 400.6131 327.77 402.27 327.77C 403.9268 327.77 405.27 329.1131 405.27 330.77L405.27 330.77L405.31 330.77z" stroke="none" fill="#FBA919" fill-rule="nonzero" />
</g>
</svg>