<svg id="Layer_1" data-name="Layer 1" xmlns="http://www.w3.org/2000/svg" viewBox="0 0 136.26 199.91"><defs><style>.cls-1{fill:#fff;stroke:#000;}.cls-1,.cls-3{stroke-miterlimit:10;}.cls-2{fill:#cbc8c8;}.cls-3{fill:none;stroke:#231f20;stroke-width:5.06px;}.cls-4{fill:#2ebaec;}.cls-5{fill:#ea2427;}.cls-6{fill:#fbdf4b;}.cls-7{fill:#231f20;}</style></defs><rect class="cls-1" x="2.92" y="101.77" width="130.81" height="95.61"/><rect class="cls-2" x="2.21" y="3.06" width="131.01" height="124.43"/><line class="cls-3" x1="68.81" y1="30.03" x2="68.81" y2="2.37"/><line class="cls-3" x1="36.41" y1="88.88" x2="3.16" y2="107.78"/><line class="cls-3" x1="101.35" y1="87.76" x2="133.45" y2="108.28"/><path d="M15.27,143.88H22.5v2.86H15.25l0,6.81H12.12V136.27H24v2.83H15.27Z"/><path d="M36.7,149.68l-6.85,0-1.46,3.85h-3l6.8-17.33h2.59l6.51,17.33H38.13Zm-3.4-9.25-2.44,6.46h4.85l-2.39-6.46Z"/><path d="M53.35,153.55H45.56l0-17.28h7.55c3.27,0,5.32,2.14,5.32,4.75a4,4,0,0,1-2.37,3.75v0c1.24.27,2.52,2.1,2.52,4C58.6,151.73,56.11,153.55,53.35,153.55ZM52.85,139H48.64v4.64l4,0c1.77,0,2.91-1.06,2.91-2.36A2.32,2.32,0,0,0,52.85,139Zm-.07,7.2H48.64v4.64h4c1.77,0,2.83-1,2.83-2.22A2.38,2.38,0,0,0,52.78,146.2Z"/><path d="M73.67,136.27h3.18v14.27h9v3H73.69Z"/><path d="M100.94,149.68l-6.85,0-1.46,3.85h-3l6.81-17.33H99l6.51,17.33h-3.13Zm-3.4-9.25-2.44,6.46H100l-2.4-6.46Z"/><path d="M117.59,153.55H109.8l0-17.28h7.55c3.28,0,5.32,2.14,5.32,4.75a4,4,0,0,1-2.37,3.75v0c1.24.27,2.52,2.1,2.52,4C122.84,151.73,120.35,153.55,117.59,153.55Zm-.5-14.55h-4.21v4.64l4,0c1.77,0,2.91-1.06,2.91-2.36A2.32,2.32,0,0,0,117.09,139Zm-.07,7.2h-4.14v4.64h4c1.77,0,2.83-1,2.83-2.22A2.38,2.38,0,0,0,117,146.2Z"/><path d="M12.1,170.9h12v2.84H15.28v4.51h7.49V181H15.28v4.34h9v2.86H12.1Z"/><path d="M29.24,170.9h3.18v14.28h9v3H29.26Z"/><path d="M63.32,183h-4v5.18H56.14V170.9h7.08A5.84,5.84,0,0,1,69.31,177,5.7,5.7,0,0,1,63.32,183Zm0-8.93h-4v6h3.55a3.1,3.1,0,0,0,3.26-3A2.87,2.87,0,0,0,63.27,174.08Z"/><path d="M82.26,184.32l-6.86,0L74,188.19h-3l6.81-17.34h2.59l6.51,17.34H83.69Zm-3.41-9.25-2.44,6.46h4.86l-2.39-6.46Z"/><path d="M96.51,188.43c-2.52,0-4.14-.69-6.53-2.34l1-2.76c2.27,1.36,3.9,2.15,5.28,2.15,1.7,0,4.19-.65,4.19-2.57,0-1.55-2-1.92-4.39-2.22-2.91-.37-6.26-.94-6.26-4.93,0-4.34,4.24-5.3,6.85-5.3a10.65,10.65,0,0,1,6.49,2.19l-.91,2.52a10.48,10.48,0,0,0-5.58-1.78c-2.83,0-3.77,1.19-3.77,2.22,0,1.75,3.06,1.8,4.07,1.93,2.79.29,6.63.88,6.63,5.37S99.3,188.43,96.51,188.43Z"/><path d="M116.93,188.66a8.66,8.66,0,0,1-8.68-9.08c0-6.24,4.49-9.17,8.68-9.17a8.79,8.79,0,0,1,8.65,9.22A8.57,8.57,0,0,1,116.93,188.66Zm0-15.22c-3.4,0-5.67,2.72-5.67,6.19a5.66,5.66,0,0,0,5.67,6c3.38,0,5.65-2.59,5.65-6S120.31,173.44,116.93,173.44Z"/><path class="cls-3" d="M133.73,162.61H2.53V128h131.2Z"/><path class="cls-3" d="M133.73,197.37H2.53V162.78h131.2Z"/><rect class="cls-3" x="2.57" y="2.53" width="131.16" height="125.02"/><polygon class="cls-4" points="70.99 103.76 98.83 86.44 98.83 53.2 70.99 69.04 70.99 103.76"/><polygon class="cls-5" points="96.08 49.36 68.93 32.37 41.67 49.62 68.71 64.93 96.08 49.36"/><polygon class="cls-6" points="39.37 53.71 39.25 86.93 66.44 103.77 66.44 69.04 39.37 53.71"/><polygon class="cls-7" points="68.72 70.33 68.71 70.33 68.71 105.18 70.99 103.76 70.99 69.04 68.72 70.33"/><polygon class="cls-7" points="66.44 69.04 66.44 103.77 68.57 105.09 67.94 69.89 66.44 69.04"/><polygon class="cls-7" points="67.94 69.89 68.57 105.09 68.71 105.18 68.71 105.18 68.71 70.33 67.94 69.89"/><polygon class="cls-7" points="70.17 67.63 40.67 50.26 39.42 51.05 68.71 67.63 70.17 67.63"/><polygon class="cls-7" points="70.99 67.75 98.83 51.29 98.83 51.08 97.64 50.34 70.99 67.69 70.99 67.75"/><polygon class="cls-7" points="70.99 69.04 98.83 53.2 98.83 51.29 70.99 67.75 70.99 69.04"/><polygon class="cls-7" points="70.17 67.63 70.99 67.63 70.99 67.69 97.64 50.34 96.08 49.36 68.71 64.93 41.67 49.62 40.67 50.26 70.17 67.63"/><polygon class="cls-7" points="66.44 67.63 68.71 67.63 39.42 51.05 39.37 51.08 39.37 53.71 66.44 69.04 66.44 67.63"/><polygon class="cls-7" points="68.71 67.63 68.71 69.1 70.99 67.75 70.99 67.69 70.65 67.91 70.17 67.63 68.71 67.63 68.71 67.63"/><polygon class="cls-7" points="68.71 70.33 68.72 70.33 70.99 69.04 70.99 67.75 68.71 69.1 68.71 70.33"/><polygon class="cls-7" points="70.99 67.69 70.99 67.63 70.17 67.63 70.65 67.91 70.99 67.69"/><polygon class="cls-7" points="68.71 69.1 68.71 67.63 68.71 67.63 66.44 67.63 66.44 69.04 67.94 69.89 67.94 69.56 68.71 69.1"/><polygon class="cls-7" points="67.94 69.56 67.94 69.89 68.71 70.33 68.71 69.1 67.94 69.56"/><polygon class="cls-7" points="103.38 48.39 69.02 26.89 69.02 28.96 99.84 47.27 101.16 48.05 99.75 48.96 100.46 50.32 101.58 49.66 100.84 88.12 70.99 105.63 70.99 107.94 68.71 107.94 68.71 107.94 68.71 107.94 66.44 107.94 66.44 106.53 36.97 88.28 37.1 52.43 36.02 51.82 37.1 49.74 37.1 49.73 37.1 49.74 37.74 48.53 36.97 48.07 69.02 28.96 69.02 26.89 68.92 26.83 34.83 48.4 34.69 89.36 36.63 88.27 34.69 89.36 34.69 89.62 68.72 110.7 103.29 89.18 101.68 88.27 103.29 89.18 103.38 89.13 103.38 48.39"/><polygon class="cls-7" points="98.83 53.2 98.83 86.44 70.99 103.76 70.99 105.63 100.84 88.12 101.58 49.66 100.46 50.32 101.25 51.82 98.83 53.2"/><polygon class="cls-7" points="37.74 48.53 38.19 47.66 41.67 49.62 68.93 32.37 96.08 49.36 99.07 47.66 99.75 48.96 101.16 48.05 99.84 47.27 69.02 28.96 36.97 48.07 37.74 48.53"/><polygon class="cls-7" points="37.85 88.82 66.44 106.53 66.44 103.77 39.25 86.93 39.37 53.71 37.1 52.43 36.97 88.28 66.44 106.53 66.44 106.53 37.85 88.82"/><polygon class="cls-7" points="68.71 107.94 68.71 107.94 68.71 107.94 68.71 107.94"/><polygon class="cls-7" points="37.1 49.73 37.1 49.74 37.1 49.74 37.1 49.73"/><polygon class="cls-7" points="68.71 106.97 68.71 107.94 70.99 107.94 70.99 105.63 69.92 106.26 68.71 106.97"/><polygon class="cls-7" points="66.44 107.94 68.71 107.94 66.44 106.53 66.44 107.94"/><polygon class="cls-7" points="68.71 105.18 68.71 106.97 69.92 106.26 70.99 105.63 70.99 103.76 68.71 105.18"/><polygon class="cls-7" points="68.61 107.04 68.57 105.09 66.44 103.77 66.44 106.53 66.86 106.79 66.44 106.53 66.44 106.53 68.71 107.94 68.71 107.94 68.71 106.97 68.61 107.04"/><polygon class="cls-7" points="68.57 105.09 68.61 107.04 68.71 106.97 68.71 105.18 68.71 105.18 68.57 105.09"/><polygon class="cls-7" points="98.83 51.08 98.83 51.29 100.46 50.32 99.75 48.96 97.64 50.34 98.83 51.08"/><polygon class="cls-7" points="40.67 50.26 37.74 48.53 37.1 49.74 39.42 51.05 40.67 50.26"/><polygon class="cls-7" points="37.1 49.74 36.02 51.82 37.1 52.43 37.1 51.31 37.1 49.74"/><polygon class="cls-7" points="98.83 53.2 101.25 51.82 100.46 50.32 98.83 51.29 98.83 53.2"/><polygon class="cls-7" points="41.67 49.62 38.19 47.66 37.74 48.53 40.67 50.26 41.67 49.62"/><polygon class="cls-7" points="96.08 49.36 97.64 50.34 99.75 48.96 99.07 47.66 96.08 49.36"/><polygon class="cls-7" points="39.37 51.08 39.42 51.05 37.1 49.74 37.1 49.74 37.1 51.31 37.1 52.43 39.37 53.71 39.37 51.08"/></svg>